<svg width="30" height="21" viewBox="0 0 30 21" fill="none" xmlns="http://www.w3.org/2000/svg">
<path d="M7.88524 0.55829C5.88091 2.36217 3.997 4.2955 2.2456 6.34584C1.30258 7.49226 -0.121191 8.74962 0.00824314 10.3583C0.137677 11.967 1.50598 12.6511 2.50447 13.6126C4.3278 15.3597 5.92433 17.329 7.25655 19.4742C8.84675 21.9889 12.8037 19.6776 11.2505 17.1443C10.242 15.5358 9.11728 14.0032 7.88524 12.5587C7.20297 11.7821 6.48086 11.0415 5.72184 10.3398C5.31504 9.95151 4.13164 8.23188 4.46448 9.43377L4.2241 11.2828C6.12388 8.47912 8.44388 5.9845 11.1026 3.8866C13.303 1.88961 10.0301 -1.38322 7.82976 0.632254L7.88524 0.55829Z" fill="#EEEEEE"/>
<path d="M4.61253 13.0763C12.3326 13.4584 20.0683 13.3967 27.7812 12.8914C30.7212 12.688 30.7582 8.06533 27.7812 8.26873C20.0683 8.77405 12.3326 8.83579 4.61253 8.45363C1.63554 8.3242 1.65403 12.9468 4.61253 13.0763Z" fill="#EEEEEE"/>
</svg>
