<svg width="53" height="53" viewBox="0 0 53 53" fill="none" xmlns="http://www.w3.org/2000/svg">
<g clip-path="url(#clip0_8054_1217)">
<path fill-rule="evenodd" clip-rule="evenodd" d="M53 26.5C53 41.1353 41.1353 53 26.5 53C11.8644 53 0 41.1353 0 26.5C0 11.8644 11.8644 0 26.5 0C41.1353 0 53 11.8644 53 26.5ZM37.1803 18.4696C37.9566 19.2458 37.9566 20.5043 37.1803 21.2803L23.9303 34.5303C23.1541 35.3066 21.8959 35.3066 21.1197 34.5303L15.8196 29.2303C15.0435 28.4541 15.0435 27.1959 15.8196 26.4197C16.5958 25.6434 17.8542 25.6434 18.6304 26.4197L22.525 30.3142L28.4471 24.3918L34.3697 18.4696C35.1459 17.6935 36.4041 17.6935 37.1803 18.4696Z" fill="#58FCAD"/>
</g>
<defs>
<clipPath id="clip0_8054_1217">
<rect width="53" height="53" fill="white"/>
</clipPath>
</defs>
</svg>
