<svg width="28" height="28" viewBox="0 0 28 28" fill="none" xmlns="http://www.w3.org/2000/svg">
<circle cx="14" cy="14" r="14" fill="#D9D9D9"/>
<circle cx="14" cy="14" r="14" fill="url(#paint0_linear_224_25)"/>
<path d="M21.4786 9.76643L20.9633 9.25117C20.8014 9.08914 20.5855 9 20.3551 9C20.1246 9 19.9086 9.08914 19.7467 9.25117L12.5066 16.4912L7.98303 11.9675C7.82113 11.8057 7.60512 11.7165 7.37467 11.7165C7.14434 11.7165 6.92847 11.8057 6.76643 11.9675L6.25104 12.4827C6.08901 12.6449 6 12.8611 6 13.0913C6 13.3216 6.08901 13.5376 6.25104 13.6996L11.3584 18.8067C11.3652 18.8163 11.3723 18.8253 11.3806 18.8334L11.896 19.3403C12.0579 19.5017 12.2739 19.5824 12.5062 19.5824H12.5089C12.7394 19.5824 12.9555 19.5017 13.1171 19.3403L13.6326 18.829C13.6409 18.8208 13.648 18.814 13.6522 18.8071L21.4784 10.9816C21.8141 10.6467 21.8141 10.1018 21.4786 9.76643Z" fill="#F9F8FE"/>
<defs>
<linearGradient id="paint0_linear_224_25" x1="28" y1="10.9874" x2="0.532499" y2="11.177" gradientUnits="userSpaceOnUse">
<stop stop-color="#C5C3FF"/>
<stop offset="0.492931" stop-color="#A3A0F8"/>
<stop offset="1" stop-color="#4441C8"/>
</linearGradient>
</defs>
</svg>
