<svg width="309" height="73" viewBox="0 0 309 73" fill="none" xmlns="http://www.w3.org/2000/svg">
<path d="M296.024 15.1313L291.875 10.3636L300.26 0.46875H308.606L296.024 15.1313Z" fill="#807DF0"/>
<path d="M284.116 18.7578L288.265 23.5255L279.792 33.5065H271.445L284.116 18.7578Z" fill="#807DF0"/>
<path d="M33.7883 19.6786C33.7883 21.6904 33.4263 23.5403 32.7034 25.2294C31.9957 26.9186 31.013 28.3769 29.7564 29.6056C28.4986 30.8182 27.0057 31.7701 25.2766 32.4614C23.5474 33.1527 21.669 33.4983 19.6413 33.4983H3.08919C2.64956 33.4983 2.24049 33.4214 1.86315 33.2675C1.48582 33.1136 1.15551 32.9069 0.87339 32.6451C0.606554 32.3684 0.39379 32.0469 0.236274 31.6771C0.0787579 31.3085 0 30.9089 0 30.4794V3.48647C0 3.07193 0.0787579 2.68037 0.236274 2.31176C0.39379 1.94316 0.605378 1.62049 0.87339 1.3449C1.15668 1.06816 1.487 0.853429 1.86315 0.699557C2.24049 0.545686 2.64956 0.46875 3.08919 0.46875H19.6413C21.669 0.46875 23.5474 0.814387 25.2766 1.50566C27.0057 2.19693 28.4986 3.15691 29.7564 4.38444C31.0142 5.59703 31.9969 7.05652 32.7034 8.76059C33.4263 10.4497 33.7883 12.2927 33.7883 14.2885V19.6786ZM27.6581 14.2885C27.6581 13.1218 27.4618 12.0539 27.0692 11.087C26.6919 10.1202 26.15 9.29799 25.4423 8.62279C24.7347 7.93152 23.886 7.40215 22.8962 7.03355C21.9217 6.65002 20.8368 6.45826 19.6425 6.45826H6.13019V27.5111H19.6413C20.8356 27.5111 21.9206 27.3262 22.8951 26.9588C23.8848 26.5752 24.7347 26.0447 25.4412 25.3695C26.1488 24.6783 26.6907 23.8572 27.068 22.9053C27.4607 21.9373 27.657 20.8636 27.657 19.6809V14.2908L27.6581 14.2885Z" fill="white"/>
<path d="M43.763 33.4983H37.6328V0.46875H43.763V33.4983Z" fill="white"/>
<path d="M81.4079 30.4829C81.4079 30.9123 81.3292 31.312 81.1717 31.6806C81.0141 32.0492 80.7943 32.3718 80.511 32.6486C80.2442 32.9092 79.9209 33.1171 79.5448 33.2709C79.1674 33.4248 78.7584 33.5018 78.3187 33.5018H56.2019C55.6365 33.5018 55.0229 33.4397 54.3622 33.3169C53.7181 33.1791 53.0727 32.9712 52.4285 32.6945C51.7997 32.4178 51.1943 32.0652 50.6124 31.6346C50.0305 31.1891 49.5122 30.6597 49.0561 30.0454C48.6164 29.4161 48.2626 28.6938 47.9946 27.8808C47.7278 27.0518 47.5938 26.1228 47.5938 25.0939V8.87771C47.5938 8.32538 47.6572 7.73401 47.783 7.1036C47.9241 6.45826 48.1368 5.82899 48.4201 5.21465C48.7034 4.58539 49.0725 3.98598 49.5286 3.41757C49.9847 2.84917 50.5266 2.35081 51.1555 1.92019C51.7997 1.47466 52.539 1.12213 53.3725 0.860319C54.2059 0.599656 55.1486 0.46875 56.2019 0.46875H81.1246V6.45711H56.2019C55.4002 6.45711 54.7866 6.66495 54.3622 7.07948C53.9379 7.49402 53.7251 8.10836 53.7251 8.9225V25.0916C53.7251 25.8598 53.9367 26.4581 54.3622 26.8887C54.8019 27.3033 55.4155 27.5111 56.2019 27.5111H75.2777V20.0024H58.9608V13.9681H78.3187C78.7584 13.9681 79.1674 14.0531 79.5448 14.2219C79.9221 14.3757 80.2442 14.5905 80.511 14.8672C80.7943 15.144 81.0141 15.4655 81.1717 15.8341C81.3292 16.1878 81.4079 16.5713 81.4079 16.9858V30.4829Z" fill="white"/>
<path d="M91.3177 33.4983H85.1875V0.46875H91.3177V33.4983Z" fill="white"/>
<path d="M127.942 6.45711H114.43V33.4983H108.3V6.45711H94.7656V0.46875H127.942V6.45711Z" fill="white"/>
<path d="M164.468 33.4983H158.338V25.3902H136.786V33.4983H130.656V16.9835C130.656 14.5721 131.081 12.3536 131.929 10.3269C132.778 8.30012 133.957 6.55701 135.466 5.09867C136.975 3.64034 138.759 2.50353 140.818 1.68939C142.878 0.875246 145.125 0.46875 147.562 0.46875H161.379C161.803 0.46875 162.204 0.545686 162.581 0.699557C162.959 0.853429 163.289 1.06816 163.572 1.3449C163.854 1.62164 164.075 1.94431 164.232 2.31176C164.389 2.68037 164.468 3.07193 164.468 3.48647V33.4995V33.4983ZM136.786 19.4018H158.338V6.45711H147.562C147.373 6.45711 146.972 6.48811 146.36 6.54897C145.762 6.5949 145.063 6.72581 144.261 6.94054C143.475 7.15527 142.642 7.48598 141.761 7.93152C140.882 8.37706 140.072 8.99139 139.333 9.77453C138.594 10.5577 137.981 11.5406 137.494 12.7234C137.023 13.89 136.786 15.3105 136.786 16.9847V19.403V19.4018Z" fill="white"/>
<path d="M199.343 33.4983H171.378C170.937 33.4983 170.53 33.4214 170.152 33.2675C169.775 33.1136 169.445 32.9069 169.161 32.6451C168.894 32.3684 168.683 32.0469 168.525 31.6771C168.368 31.3085 168.289 30.9089 168.289 30.4794V0.46875H174.42V27.5099H199.343V33.4983Z" fill="white"/>
<path d="M256.284 33.5015H250.106V13.8312L239.236 32.5116C238.969 32.9882 238.592 33.3487 238.104 33.5945C237.632 33.8402 237.122 33.9631 236.571 33.9631C236.02 33.9631 235.534 33.8402 235.063 33.5945C234.607 33.3487 234.245 32.9882 233.978 32.5116L223.061 13.8312V33.5015H216.93V3.02802C216.93 2.33675 217.134 1.72241 217.543 1.18501C217.968 0.647603 218.518 0.287039 219.194 0.102163C219.524 0.0252275 219.854 0.00226161 220.185 0.0332656C220.514 0.0481934 220.829 0.118239 221.127 0.241107C221.441 0.349047 221.725 0.509808 221.976 0.724539C222.228 0.924343 222.44 1.17008 222.613 1.46174L236.571 25.1637L250.53 1.46174C250.892 0.878411 251.387 0.463876 252.016 0.218141C252.66 -0.0275941 253.329 -0.0654878 254.02 0.103312C254.681 0.287039 255.222 0.648752 255.647 1.18615C256.071 1.72356 256.284 2.33789 256.284 3.02917V33.5026V33.5015Z" fill="white"/>
<path d="M267.389 33.4983H261.258V0.46875H267.389V33.4983Z" fill="white"/>
<path d="M290.002 12.2617L294.151 17.0295L308.606 33.4983H300.283L290.002 21.7972L285.852 17.0295L271.375 0.46875H279.674L290.002 12.2617Z" fill="white"/>
<path d="M25.2862 68.2635H22.5979V64.7084H13.1493V68.2635H10.4609V61.0224C10.4609 59.966 10.6467 58.9922 11.0193 58.1034C11.3919 57.2147 11.908 56.451 12.5698 55.8114C13.2316 55.1718 14.0133 54.6735 14.9161 54.3164C15.8188 53.9592 16.8039 53.7812 17.8724 53.7812H23.9309C24.1166 53.7812 24.2929 53.8146 24.4575 53.8823C24.6233 53.95 24.7678 54.0442 24.8913 54.1648C25.0159 54.2854 25.1123 54.4277 25.1804 54.5885C25.2498 54.7504 25.2839 54.9215 25.2839 55.1041V68.2624L25.2862 68.2635ZM13.1493 62.0834H22.5979V56.4085H17.8736C17.7913 56.4085 17.6162 56.42 17.3517 56.4441C17.086 56.4683 16.7792 56.5268 16.4313 56.621C16.0833 56.7151 15.7166 56.8598 15.3298 57.055C14.9443 57.2503 14.5893 57.5201 14.2648 57.8634C13.9404 58.2068 13.6736 58.6362 13.4631 59.1507C13.2527 59.6663 13.1481 60.2898 13.1481 61.0235V62.0834H13.1493Z" fill="#8785FF"/>
<path d="M38.9102 64.5835C38.9102 65.0348 38.8514 65.4402 38.735 65.8007C38.6175 66.1613 38.4623 66.4771 38.2695 66.7504C38.0768 67.0225 37.8522 67.2556 37.5972 67.4474C37.3421 67.6391 37.0752 67.7953 36.7955 67.917C36.5157 68.0387 36.2336 68.1272 35.948 68.1846C35.6623 68.242 35.3908 68.2707 35.1369 68.2707H27.8594V65.6445H35.1169C35.4825 65.6445 35.7575 65.5538 35.9444 65.3713C36.1313 65.1887 36.223 64.9269 36.223 64.5835C36.1889 63.8831 35.8269 63.5328 35.138 63.5328H30.9721C30.3796 63.5328 29.8765 63.4318 29.4628 63.2297C29.049 63.0276 28.7128 62.775 28.4554 62.4718C28.1968 62.1687 28.011 61.8425 27.897 61.4923C27.783 61.1421 27.7266 60.816 27.7266 60.5128C27.7266 59.9272 27.8335 59.4346 28.0475 59.0338C28.2614 58.6331 28.5294 58.3081 28.8539 58.0589C29.1783 57.8097 29.5298 57.6294 29.9083 57.5181C30.2868 57.4067 30.6418 57.3516 30.9733 57.3516H37.5795V59.9777H30.9944C30.8569 59.9777 30.7476 59.9926 30.6688 60.0236C30.5901 60.0535 30.5313 60.0948 30.4925 60.1454C30.4549 60.1959 30.4325 60.2499 30.4255 60.3073C30.4184 60.3647 30.4149 60.4198 30.4149 60.4738C30.422 60.5817 30.4419 60.6655 30.4772 60.7264C30.5113 60.7873 30.5548 60.8309 30.6065 60.8573C30.6582 60.8849 30.717 60.8998 30.7828 60.9032C30.8487 60.9067 30.9121 60.9078 30.9744 60.9078H35.1404C35.8292 60.9078 36.4158 61.0295 36.8977 61.2718C37.3797 61.5141 37.77 61.8184 38.0662 62.1859C38.3624 62.5533 38.5775 62.9518 38.7127 63.3824C38.8467 63.813 38.9137 64.2138 38.9137 64.5835H38.9102Z" fill="#8785FF"/>
<path d="M51.5977 64.5835C51.5977 65.0348 51.5389 65.4402 51.4225 65.8007C51.305 66.1613 51.1498 66.4771 50.957 66.7504C50.7643 67.0225 50.5397 67.2556 50.2847 67.4474C50.0296 67.6391 49.7627 67.7953 49.483 67.917C49.2032 68.0387 48.9211 68.1272 48.6355 68.1846C48.3498 68.242 48.0783 68.2707 47.8244 68.2707H40.5469V65.6445H47.8044C48.17 65.6445 48.445 65.5538 48.6319 65.3713C48.8188 65.1887 48.9105 64.9269 48.9105 64.5835C48.8764 63.8831 48.5144 63.5328 47.8255 63.5328H43.6596C43.0671 63.5328 42.564 63.4318 42.1503 63.2297C41.7365 63.0276 41.4003 62.775 41.1429 62.4718C40.8843 62.1687 40.6985 61.8425 40.5845 61.4923C40.4705 61.1421 40.4141 60.816 40.4141 60.5128C40.4141 59.9272 40.521 59.4346 40.735 59.0338C40.9489 58.6331 41.2169 58.3081 41.5414 58.0589C41.8658 57.8097 42.2173 57.6294 42.5958 57.5181C42.9743 57.4067 43.3293 57.3516 43.6608 57.3516H50.267V59.9777H43.6819C43.5444 59.9777 43.4351 59.9926 43.3563 60.0236C43.2776 60.0535 43.2188 60.0948 43.18 60.1454C43.1424 60.1959 43.12 60.2499 43.113 60.3073C43.1059 60.3647 43.1024 60.4198 43.1024 60.4738C43.1095 60.5817 43.1294 60.6655 43.1647 60.7264C43.1988 60.7873 43.2423 60.8309 43.294 60.8573C43.3457 60.8849 43.4045 60.8998 43.4703 60.9032C43.5362 60.9067 43.5996 60.9078 43.6619 60.9078H47.8279C48.5167 60.9078 49.1033 61.0295 49.5852 61.2718C50.0672 61.5141 50.4575 61.8184 50.7537 62.1859C51.0499 62.5533 51.265 62.9518 51.4002 63.3824C51.5342 63.813 51.6012 64.2138 51.6012 64.5835H51.5977Z" fill="#8785FF"/>
<path d="M65.501 60.9675C65.501 61.3316 65.4351 61.7231 65.3047 62.1445C65.1742 62.566 64.9614 62.9564 64.6687 63.3158C64.376 63.6764 63.9928 63.9772 63.5214 64.2195C63.0489 64.4618 62.4753 64.5835 61.8005 64.5835H56.9516V62.0894H61.8005C62.1661 62.0894 62.4482 61.9803 62.6481 61.761C62.8479 61.5428 62.9478 61.2707 62.9478 60.948C62.9478 60.6047 62.8361 60.336 62.6116 60.1396C62.3871 59.9444 62.1167 59.8468 61.8005 59.8468H56.9516C56.586 59.8468 56.3039 59.9559 56.1041 60.1752C55.9043 60.3945 55.8043 60.6655 55.8043 60.9882V64.6536C55.8043 65.0038 55.916 65.2759 56.1405 65.4712C56.3639 65.6664 56.6425 65.764 56.9728 65.764H61.8005V68.2684H56.9516C56.579 68.2684 56.1782 68.2041 55.7467 68.0766C55.3165 67.9492 54.9157 67.7413 54.5477 67.4554C54.1786 67.1695 53.8707 66.7951 53.6226 66.3347C53.3746 65.8731 53.25 65.3127 53.25 64.6536V60.9675C53.25 60.6035 53.3158 60.212 53.4463 59.7905C53.5768 59.3703 53.7896 58.9798 54.0822 58.6193C54.3749 58.2587 54.7582 57.9579 55.2295 57.7156C55.7021 57.4733 56.2757 57.3516 56.9504 57.3516H61.7993C62.172 57.3516 62.5728 57.4159 63.0042 57.5433C63.4345 57.6708 63.8341 57.8786 64.2032 58.1646C64.5723 58.4505 64.8803 58.8248 65.1283 59.2853C65.3764 59.7469 65.501 60.3073 65.501 60.9664V60.9675Z" fill="#8785FF"/>
<path d="M78.1055 64.5835C78.1055 65.0348 78.0467 65.4402 77.9304 65.8007C77.8128 66.1613 77.6576 66.4771 77.4649 66.7504C77.2721 67.0225 77.0476 67.2556 76.7925 67.4474C76.5374 67.6391 76.2706 67.7953 75.9908 67.917C75.711 68.0387 75.4289 68.1272 75.1433 68.1846C74.8576 68.242 74.5861 68.2707 74.3322 68.2707H67.0547V65.6445H74.3122C74.6778 65.6445 74.9528 65.5538 75.1397 65.3713C75.3266 65.1887 75.4183 64.9269 75.4183 64.5835C75.3842 63.8831 75.0222 63.5328 74.3333 63.5328H70.1674C69.575 63.5328 69.0719 63.4318 68.6581 63.2297C68.2443 63.0276 67.9081 62.775 67.6507 62.4718C67.3921 62.1687 67.2063 61.8425 67.0923 61.4923C66.9783 61.1421 66.9219 60.816 66.9219 60.5128C66.9219 59.9272 67.0288 59.4346 67.2428 59.0338C67.4567 58.6331 67.7247 58.3081 68.0492 58.0589C68.3736 57.8097 68.7251 57.6294 69.1036 57.5181C69.4821 57.4067 69.8371 57.3516 70.1686 57.3516H76.7748V59.9777H70.1897C70.0522 59.9777 69.9429 59.9926 69.8641 60.0236C69.7854 60.0535 69.7266 60.0948 69.6878 60.1454C69.6502 60.1959 69.6279 60.2499 69.6208 60.3073C69.6138 60.3647 69.6102 60.4198 69.6102 60.4738C69.6173 60.5817 69.6373 60.6655 69.6725 60.7264C69.7066 60.7873 69.7501 60.8309 69.8018 60.8573C69.8536 60.8849 69.9123 60.8998 69.9782 60.9032C70.044 60.9067 70.1075 60.9078 70.1698 60.9078H74.3357C75.0245 60.9078 75.6111 61.0295 76.0931 61.2718C76.575 61.5141 76.9653 61.8184 77.2615 62.1859C77.5577 62.5533 77.7728 62.9518 77.908 63.3824C78.042 63.813 78.109 64.2138 78.109 64.5835H78.1055Z" fill="#8785FF"/>
<path d="M90.793 64.5835C90.793 65.0348 90.7342 65.4402 90.6179 65.8007C90.5003 66.1613 90.3451 66.4771 90.1524 66.7504C89.9596 67.0225 89.7351 67.2556 89.48 67.4474C89.2249 67.6391 88.9581 67.7953 88.6783 67.917C88.3985 68.0387 88.1164 68.1272 87.8308 68.1846C87.5451 68.242 87.2736 68.2707 87.0197 68.2707H79.7422V65.6445H86.9997C87.3653 65.6445 87.6403 65.5538 87.8272 65.3713C88.0141 65.1887 88.1058 64.9269 88.1058 64.5835C88.0717 63.8831 87.7097 63.5328 87.0208 63.5328H82.8549C82.2625 63.5328 81.7593 63.4318 81.3456 63.2297C80.9318 63.0276 80.5956 62.775 80.3382 62.4718C80.0796 62.1687 79.8938 61.8425 79.7798 61.4923C79.6658 61.1421 79.6094 60.816 79.6094 60.5128C79.6094 59.9272 79.7163 59.4346 79.9303 59.0338C80.1442 58.6331 80.4122 58.3081 80.7367 58.0589C81.0611 57.8097 81.4126 57.6294 81.7911 57.5181C82.1696 57.4067 82.5246 57.3516 82.8561 57.3516H89.4623V59.9777H82.8772C82.7397 59.9777 82.6304 59.9926 82.5516 60.0236C82.4729 60.0535 82.4141 60.0948 82.3753 60.1454C82.3377 60.1959 82.3154 60.2499 82.3083 60.3073C82.3012 60.3647 82.2977 60.4198 82.2977 60.4738C82.3048 60.5817 82.3248 60.6655 82.36 60.7264C82.3941 60.7873 82.4376 60.8309 82.4893 60.8573C82.5411 60.8849 82.5998 60.8998 82.6657 60.9032C82.7315 60.9067 82.795 60.9078 82.8573 60.9078H87.0232C87.712 60.9078 88.2986 61.0295 88.7806 61.2718C89.2625 61.5141 89.6528 61.8184 89.949 62.1859C90.2452 62.5533 90.4603 62.9518 90.5955 63.3824C90.7295 63.813 90.7965 64.2138 90.7965 64.5835H90.793Z" fill="#8785FF"/>
<path d="M104.839 64.5824C104.839 65.0337 104.781 65.439 104.663 65.7996C104.545 66.1601 104.39 66.4759 104.197 66.7492C104.005 67.0214 103.78 67.2545 103.525 67.4462C103.27 67.638 103.003 67.7942 102.723 67.9159C102.444 68.0376 102.162 68.126 101.876 68.1834C101.59 68.2408 101.32 68.2696 101.065 68.2696H96.2159C95.8432 68.2696 95.4365 68.2052 94.9957 68.0778C94.5549 67.9503 94.1458 67.739 93.7709 67.4462C93.3947 67.1534 93.082 66.7733 92.8305 66.3048C92.5789 65.8375 92.4531 65.2633 92.4531 64.5835V61.0284C92.4531 60.3555 92.5789 59.7848 92.8305 59.3163C93.082 58.8489 93.3959 58.4677 93.7709 58.1749C94.1458 57.8821 94.5549 57.6719 94.9957 57.5433C95.4365 57.4159 95.8432 57.3516 96.2159 57.3516H101.065C101.754 57.3516 102.34 57.4733 102.822 57.7156C103.304 57.9579 103.694 58.2622 103.991 58.6296C104.287 58.9971 104.502 59.3955 104.637 59.8261C104.771 60.2567 104.838 60.6575 104.838 61.0284V64.5835L104.839 64.5824ZM102.151 61.0479C102.151 60.6839 102.058 60.4152 101.872 60.2395C101.687 60.0638 101.417 59.9766 101.066 59.9766H96.2382C95.8797 59.9766 95.6081 60.0661 95.4212 60.2441C95.2355 60.4221 95.1427 60.6839 95.1427 61.0273V64.5824C95.1427 64.9257 95.2355 65.1887 95.4212 65.3701C95.607 65.5515 95.8797 65.6434 96.2382 65.6434H101.066C101.432 65.6434 101.703 65.5527 101.883 65.3701C102.062 65.1887 102.152 64.9257 102.152 64.5824V61.0479H102.151Z" fill="#8785FF"/>
<path d="M116.897 59.9766H110.849C110.484 59.9766 110.209 60.0661 110.022 60.2441C109.836 60.4221 109.743 60.6839 109.743 61.0273V68.2684H107.055V61.0273C107.055 60.576 107.113 60.1718 107.231 59.8158C107.349 59.4587 107.505 59.1441 107.701 58.8719C107.898 58.5998 108.123 58.3667 108.378 58.1749C108.633 57.9831 108.9 57.827 109.18 57.7052C109.46 57.5835 109.742 57.4951 110.028 57.4377C110.313 57.3803 110.581 57.3516 110.829 57.3516H116.897V59.9777V59.9766Z" fill="#8785FF"/>
<path d="M121.391 55.1079H118.703V52.7344H121.391V55.1079ZM121.391 68.2662H118.703V57.3494H121.391V68.2662Z" fill="#8785FF"/>
<path d="M135.509 64.6513C135.509 65.0153 135.443 65.4069 135.312 65.8283C135.182 66.2497 134.969 66.6401 134.677 66.9995C134.384 67.3601 134.001 67.661 133.529 67.9032C133.057 68.1455 132.483 68.2673 131.808 68.2673H126.959C126.587 68.2673 126.186 68.203 125.755 68.0755C125.324 67.948 124.923 67.7402 124.556 67.4543C124.186 67.1683 123.878 66.794 123.63 66.3335C123.382 65.8719 123.258 65.3115 123.258 64.6524C123.258 64.2884 123.324 63.8945 123.454 63.4708C123.585 63.0471 123.797 62.6544 124.09 62.2938C124.383 61.9333 124.766 61.6324 125.237 61.3901C125.71 61.1478 126.284 61.0261 126.958 61.0261H131.807V63.5305H126.958C126.593 63.5305 126.311 63.6396 126.111 63.8589C125.911 64.0783 125.811 64.3493 125.811 64.6719C125.811 65.0153 125.926 65.2828 126.158 65.4746C126.388 65.6664 126.662 65.7628 126.979 65.7628H131.807C132.173 65.7628 132.455 65.6549 132.655 65.4402C132.855 65.2243 132.954 64.9556 132.954 64.6317V60.9664C132.954 60.6231 132.846 60.3498 132.629 60.1488C132.411 59.9467 132.137 59.8457 131.807 59.8457H125.904V57.3516H131.807C132.18 57.3516 132.581 57.4159 133.012 57.5433C133.442 57.6708 133.842 57.8786 134.211 58.1646C134.58 58.4505 134.888 58.8248 135.136 59.2853C135.384 59.7469 135.509 60.3073 135.509 60.9664V64.6524V64.6513Z" fill="#8785FF"/>
<path d="M156.949 64.5802C156.949 65.0315 156.89 65.4368 156.772 65.7974C156.655 66.1579 156.5 66.4737 156.307 66.747C156.114 67.0192 155.89 67.2523 155.634 67.444C155.379 67.6358 155.113 67.792 154.833 67.9137C154.553 68.0354 154.271 68.1238 153.985 68.1812C153.7 68.2387 153.428 68.2674 153.174 68.2674H148.325C147.863 68.2674 147.45 68.2099 147.085 68.0951C146.72 67.9803 146.397 67.8276 146.119 67.6358C145.84 67.444 145.602 67.2236 145.405 66.9744C145.209 66.7252 145.049 66.4645 144.925 66.1912C144.8 65.918 144.709 65.6424 144.651 65.3633C144.592 65.0843 144.562 64.8225 144.562 64.5802V61.0251C144.562 60.3522 144.688 59.7815 144.94 59.313C145.191 58.8456 145.505 58.4644 145.88 58.1716C146.255 57.8787 146.664 57.6686 147.105 57.54C147.546 57.4125 147.953 57.3482 148.325 57.3482H153.174V59.9744H148.346C147.988 59.9744 147.716 60.0639 147.529 60.2419C147.344 60.4199 147.251 60.6817 147.251 61.0251V64.5595C147.251 64.9166 147.343 65.1853 147.525 65.3679C147.707 65.5493 147.975 65.6412 148.326 65.6412H153.175C153.541 65.6412 153.812 65.5505 153.992 65.3679C154.171 65.1865 154.261 64.9235 154.261 64.5802V52.7344H156.95V64.5802H156.949Z" fill="#8785FF"/>
<path d="M171.54 60.9675C171.54 61.3316 171.474 61.7231 171.344 62.1445C171.213 62.566 171 62.9564 170.708 63.3158C170.415 63.6764 170.032 63.9772 169.561 64.2195C169.088 64.4618 168.514 64.5835 167.84 64.5835H162.991V62.0894H167.84C168.205 62.0894 168.487 61.9803 168.687 61.761C168.887 61.5428 168.987 61.2707 168.987 60.948C168.987 60.6047 168.875 60.336 168.651 60.1396C168.426 59.9444 168.156 59.8468 167.84 59.8468H162.991C162.625 59.8468 162.343 59.9559 162.143 60.1752C161.943 60.3945 161.843 60.6655 161.843 60.9882V64.6536C161.843 65.0038 161.955 65.2759 162.18 65.4712C162.403 65.6664 162.68 65.764 163.012 65.764H167.84V68.2684H162.991C162.618 68.2684 162.217 68.2041 161.786 68.0766C161.354 67.9492 160.955 67.7413 160.587 67.4554C160.218 67.1695 159.91 66.7951 159.662 66.3347C159.414 65.8731 159.289 65.3127 159.289 64.6536V60.9675C159.289 60.6035 159.355 60.212 159.485 59.7905C159.616 59.3703 159.829 58.9798 160.121 58.6193C160.414 58.2587 160.797 57.9579 161.269 57.7156C161.74 57.4733 162.315 57.3516 162.99 57.3516H167.838C168.211 57.3516 168.612 57.4159 169.043 57.5433C169.474 57.6708 169.873 57.8786 170.242 58.1646C170.611 58.4505 170.919 58.8248 171.167 59.2853C171.415 59.7469 171.54 60.3073 171.54 60.9664V60.9675Z" fill="#8785FF"/>
<path d="M197.777 68.2741H195.069V59.6504L190.304 67.84C190.186 68.049 190.023 68.2075 189.812 68.3142C189.602 68.4222 189.376 68.4762 189.135 68.4762C188.894 68.4762 188.681 68.4222 188.479 68.3142C188.276 68.2063 188.116 68.0478 187.998 67.84L183.212 59.6504V68.2741H180.523V54.9136C180.523 54.6105 180.615 54.3418 180.797 54.1052C180.98 53.8698 181.219 53.7114 181.516 53.631C181.66 53.5977 181.805 53.5851 181.949 53.5954C182.094 53.6057 182.234 53.6356 182.368 53.6861C182.502 53.7366 182.624 53.8078 182.735 53.8986C182.845 53.9893 182.938 54.0995 183.013 54.227L189.133 64.6179L195.252 54.227C195.411 53.9709 195.63 53.7895 195.908 53.6815C196.188 53.5736 196.478 53.5575 196.782 53.631C197.071 53.7114 197.309 53.8698 197.495 54.1052C197.681 54.3406 197.774 54.6105 197.774 54.9136V68.2741H197.777Z" fill="#8785FF"/>
<path d="M212.087 64.6513C212.087 65.0153 212.021 65.4069 211.891 65.8283C211.759 66.2497 211.547 66.6401 211.255 66.9995C210.962 67.3601 210.579 67.661 210.107 67.9032C209.635 68.1455 209.061 68.2673 208.386 68.2673H203.538C203.165 68.2673 202.764 68.203 202.333 68.0755C201.901 67.948 201.502 67.7402 201.134 67.4543C200.765 67.1683 200.457 66.794 200.209 66.3335C199.961 65.8719 199.836 65.3115 199.836 64.6524C199.836 64.2884 199.902 63.8945 200.032 63.4708C200.163 63.0471 200.375 62.6544 200.668 62.2938C200.961 61.9333 201.344 61.6324 201.815 61.3901C202.288 61.1478 202.862 61.0261 203.536 61.0261H208.385V63.5305H203.536C203.171 63.5305 202.889 63.6396 202.689 63.8589C202.489 64.0783 202.389 64.3493 202.389 64.6719C202.389 65.0153 202.504 65.2828 202.736 65.4746C202.966 65.6664 203.24 65.7628 203.558 65.7628H208.385C208.751 65.7628 209.033 65.6549 209.233 65.4402C209.433 65.2243 209.533 64.9556 209.533 64.6317V60.9664C209.533 60.6231 209.424 60.3498 209.207 60.1488C208.989 59.9467 208.716 59.8457 208.385 59.8457H202.482V57.3516H208.385C208.758 57.3516 209.159 57.4159 209.59 57.5433C210.02 57.6708 210.42 57.8786 210.789 58.1646C211.158 58.4505 211.466 58.8248 211.714 59.2853C211.962 59.7469 212.087 60.3073 212.087 60.9664V64.6524V64.6513Z" fill="#8785FF"/>
<path d="M224.163 59.9766H218.115C217.749 59.9766 217.474 60.0661 217.287 60.2441C217.102 60.4221 217.009 60.6839 217.009 61.0273V68.2684H214.32V61.0273C214.32 60.576 214.379 60.1718 214.497 59.8158C214.614 59.4587 214.771 59.1441 214.967 58.8719C215.163 58.5998 215.389 58.3667 215.644 58.1749C215.899 57.9831 216.166 57.827 216.446 57.7052C216.724 57.5835 217.007 57.4951 217.293 57.4377C217.579 57.3803 217.847 57.3516 218.095 57.3516H224.163V59.9777V59.9766Z" fill="#8785FF"/>
<path d="M228.665 68.2662H225.977V52.7344H228.665V68.2662ZM239.064 68.2662H235.188L229.771 63.1563C229.468 62.8876 229.327 62.55 229.347 62.147C229.361 61.9586 229.41 61.7818 229.496 61.6164C229.582 61.4511 229.701 61.3121 229.852 61.1973L234.762 57.3299H239.062L232.736 62.3089L239.062 68.2674L239.064 68.2662Z" fill="#8785FF"/>
<path d="M252.228 60.9675C252.228 61.3316 252.162 61.7231 252.031 62.1445C251.901 62.566 251.688 62.9564 251.395 63.3158C251.103 63.6764 250.719 63.9772 250.248 64.2195C249.775 64.4618 249.202 64.5835 248.527 64.5835H243.678V62.0894H248.527C248.893 62.0894 249.175 61.9803 249.375 61.761C249.574 61.5428 249.674 61.2707 249.674 60.948C249.674 60.6047 249.563 60.336 249.338 60.1396C249.114 59.9444 248.843 59.8468 248.527 59.8468H243.678C243.313 59.8468 243.03 59.9559 242.831 60.1752C242.631 60.3945 242.531 60.6655 242.531 60.9882V64.6536C242.531 65.0038 242.643 65.2759 242.867 65.4712C243.09 65.6664 243.368 65.764 243.699 65.764H248.527V68.2684H243.678C243.306 68.2684 242.905 68.2041 242.473 68.0766C242.042 67.9492 241.642 67.7413 241.274 67.4554C240.905 67.1695 240.597 66.7951 240.349 66.3347C240.101 65.8731 239.977 65.3127 239.977 64.6536V60.9675C239.977 60.6035 240.042 60.212 240.173 59.7905C240.303 59.3703 240.516 58.9798 240.809 58.6193C241.102 58.2587 241.485 57.9579 241.956 57.7156C242.427 57.4733 243.002 57.3516 243.677 57.3516H248.526C248.899 57.3516 249.299 57.4159 249.731 57.5433C250.161 57.6708 250.561 57.8786 250.93 58.1646C251.299 58.4505 251.607 58.8248 251.855 59.2853C252.103 59.7469 252.228 60.3073 252.228 60.9664V60.9675Z" fill="#8785FF"/>
<path d="M264.203 59.9717H259.509V68.2624H256.79V59.9717H253.297V57.3456H256.79V53.7812H259.509V57.3456H264.203V59.9717Z" fill="#8785FF"/>
<path d="M268.696 55.1079H266.008V52.7344H268.696V55.1079ZM268.696 68.2662H266.008V57.3494H268.696V68.2662Z" fill="#8785FF"/>
<path d="M283.658 68.2684H280.97V62.2088C280.97 61.8655 280.91 61.5578 280.789 61.2845C280.668 61.0123 280.505 60.7781 280.298 60.5829C280.091 60.3877 279.847 60.2384 279.569 60.1339C279.29 60.0294 278.988 59.9777 278.665 59.9777H273.962V68.2684H271.273V58.6549C271.273 58.4734 271.308 58.3035 271.377 58.145C271.446 57.9866 271.543 57.8488 271.666 57.7305C271.789 57.6122 271.935 57.5204 272.1 57.4526C272.264 57.3849 272.441 57.3516 272.628 57.3516H278.686C279.023 57.3516 279.381 57.3883 279.756 57.4629C280.132 57.5376 280.503 57.657 280.873 57.8212C281.242 57.9866 281.593 58.1944 281.927 58.447C282.261 58.6997 282.557 59.0063 282.816 59.3657C283.074 59.7262 283.279 60.1419 283.43 60.6127C283.582 61.0835 283.657 61.6163 283.657 62.2077V68.2673L283.658 68.2684Z" fill="#8785FF"/>
<path d="M298.17 69.3202C298.17 69.7715 298.111 70.1769 297.993 70.5374C297.876 70.898 297.721 71.2138 297.528 71.4871C297.335 71.7604 297.111 71.9923 296.856 72.1841C296.6 72.3759 296.334 72.532 296.054 72.6537C295.774 72.7743 295.492 72.8639 295.206 72.9213C294.921 72.9787 294.649 73.0074 294.395 73.0074H289.546V70.3813H294.395C294.761 70.3813 295.032 70.2906 295.212 70.1091C295.391 69.9277 295.481 69.6647 295.481 69.3214V61.0307C295.481 60.6874 295.392 60.4267 295.212 60.2476C295.032 60.0696 294.761 59.98 294.395 59.98H289.546C289.216 59.98 288.954 60.0799 288.761 60.2774C288.568 60.4761 288.472 60.7264 288.472 61.0296V64.5847C288.472 64.928 288.565 65.191 288.751 65.3724C288.936 65.5538 289.209 65.6457 289.568 65.6457H294.395V68.2718H289.546C289.291 68.2718 289.022 68.2431 288.74 68.1857C288.458 68.1283 288.177 68.0387 287.897 67.9182C287.617 67.7965 287.351 67.6403 287.095 67.4485C286.84 67.2568 286.616 67.0248 286.423 66.7515C286.23 66.4782 286.075 66.1624 285.958 65.8019C285.84 65.4413 285.781 65.0359 285.781 64.5847V61.0296C285.781 60.7804 285.811 60.5174 285.869 60.2418C285.928 59.9662 286.02 59.6918 286.143 59.4185C286.268 59.1463 286.428 58.8845 286.624 58.6354C286.82 58.3862 287.058 58.168 287.338 57.9785C287.616 57.7902 287.938 57.6386 288.304 57.5238C288.669 57.409 289.082 57.3516 289.544 57.3516H294.393C294.648 57.3516 294.918 57.3803 295.204 57.4377C295.49 57.4951 295.773 57.5847 296.052 57.7052C296.33 57.827 296.598 57.9831 296.853 58.1749C297.108 58.3667 297.332 58.5986 297.526 58.8719C297.718 59.1452 297.874 59.4598 297.991 59.8158C298.109 60.1729 298.167 60.5771 298.167 61.0273V69.3179L298.17 69.3202Z" fill="#8785FF"/>
</svg>
