<svg width="35" height="35" viewBox="0 0 35 35" fill="none" xmlns="http://www.w3.org/2000/svg">
<circle cx="17.5" cy="17.5" r="17.5" fill="#D9D9D9"/>
<path d="M23.8196 12.0989V22.3829C23.8196 24.0769 23.8196 24.9238 23.4752 25.5709C23.1723 26.14 22.6889 26.6027 22.0944 26.8927C21.4184 27.2224 20.5337 27.2224 18.764 27.2224H16.2363C14.4666 27.2224 13.5818 27.2224 12.9059 26.8927C12.3114 26.6027 11.828 26.14 11.5251 25.5709C11.1807 24.9238 11.1807 24.0769 11.1807 22.3829V12.0989M9.07422 12.0989H25.9261M21.7131 12.0989L21.4281 11.2803C21.1518 10.487 21.0137 10.0904 20.7575 9.7971C20.5313 9.53814 20.2408 9.33769 19.9126 9.21414C19.5409 9.07422 19.1042 9.07422 18.2307 9.07422H16.7696C15.8961 9.07422 15.4594 9.07422 15.0877 9.21414C14.7595 9.33769 14.469 9.53814 14.2428 9.7971C13.9866 10.0904 13.8485 10.487 13.5722 11.2803L13.2872 12.0989" stroke="#807DF0" stroke-width="1.5" stroke-linecap="round" stroke-linejoin="round"/>
</svg>
