<svg width="53" height="52" viewBox="0 0 53 52" fill="none" xmlns="http://www.w3.org/2000/svg">
<rect x="0.449219" y="0.6875" width="52.4348" height="50.3477" rx="5" fill="#76FFBD"/>
<path d="M14 16.375C14 14.511 15.511 13 17.375 13H27.5H31.1646C32.0596 13 32.9181 13.3556 33.551 13.9885L40.0115 20.449C40.6444 21.0819 41 21.9404 41 22.8355V26.5V36.625C41 38.489 39.489 40 37.625 40H17.375C15.511 40 14 38.489 14 36.625V16.375Z" stroke="black" stroke-width="3" stroke-linecap="round" stroke-linejoin="round"/>
<path d="M20.75 13H29.1875V18.0625C29.1875 18.9945 28.432 19.75 27.5 19.75H22.4375C21.5055 19.75 20.75 18.9945 20.75 18.0625V13Z" stroke="black" stroke-width="3" stroke-linecap="round" stroke-linejoin="round"/>
<path d="M19.0625 31.5625C19.0625 29.6985 20.5735 28.1875 22.4375 28.1875H32.5625C34.4265 28.1875 35.9375 29.6985 35.9375 31.5625V40H19.0625V31.5625Z" stroke="black" stroke-width="3" stroke-linecap="round" stroke-linejoin="round"/>
</svg>
