<svg width="101" height="74" viewBox="0 0 101 74" fill="none" xmlns="http://www.w3.org/2000/svg">
<g filter="url(#filter0_dd_8054_1196)">
<path d="M91.45 70H8.95C6.2209 70 4 67.7791 4 65.05V18.85C4 17.9392 4.7392 17.2 5.65 17.2H93.1V8.95C93.1 8.0392 92.3608 7.3 91.45 7.3H8.95C8.0392 7.3 7.3 8.0392 7.3 8.95C7.3 9.8608 6.5608 10.6 5.65 10.6C4.7392 10.6 4 9.8608 4 8.95C4 6.2209 6.2209 4 8.95 4H91.45C94.1791 4 96.4 6.2209 96.4 8.95V18.85C96.4 19.7608 95.6608 20.5 94.75 20.5H7.3V65.05C7.3 65.9608 8.0392 66.7 8.95 66.7H91.45C92.3608 66.7 93.1 65.9608 93.1 65.05V28.75C93.1 27.8392 93.8392 27.1 94.75 27.1C95.6608 27.1 96.4 27.8392 96.4 28.75V65.05C96.4 67.7791 94.1791 70 91.45 70Z" fill="#76FFBD"/>
</g>
<g filter="url(#filter1_d_8054_1196)">
<path d="M22.1484 40.3016H18.8484C16.1193 40.3016 13.8984 38.0807 13.8984 35.3516V32.0516C13.8984 29.3225 16.1193 27.1016 18.8484 27.1016H22.1484C24.8775 27.1016 27.0984 29.3225 27.0984 32.0516V35.3516C27.0984 38.0807 24.8775 40.3016 22.1484 40.3016ZM18.8484 30.4016C17.9376 30.4016 17.1984 31.1408 17.1984 32.0516V35.3516C17.1984 36.2624 17.9376 37.0016 18.8484 37.0016H22.1484C23.0592 37.0016 23.7984 36.2624 23.7984 35.3516V32.0516C23.7984 31.1408 23.0592 30.4016 22.1484 30.4016H18.8484Z" fill="#76FFBD"/>
</g>
<g filter="url(#filter2_d_8054_1196)">
<path d="M25.4484 60.0969H15.5484C14.6376 60.0969 13.8984 59.3577 13.8984 58.4469C13.8984 57.5361 14.6376 56.7969 15.5484 56.7969H25.4484C26.3592 56.7969 27.0984 57.5361 27.0984 58.4469C27.0984 59.3577 26.3592 60.0969 25.4484 60.0969Z" fill="#76FFBD"/>
</g>
<g filter="url(#filter3_d_8054_1196)">
<path d="M45.2531 60.0969H35.3531C34.4423 60.0969 33.7031 59.3577 33.7031 58.4469C33.7031 57.5361 34.4423 56.7969 35.3531 56.7969H45.2531C46.1639 56.7969 46.9031 57.5361 46.9031 58.4469C46.9031 59.3577 46.1639 60.0969 45.2531 60.0969Z" fill="#76FFBD"/>
</g>
<g filter="url(#filter4_d_8054_1196)">
<path d="M65.05 60.0969H55.15C54.2392 60.0969 53.5 59.3577 53.5 58.4469C53.5 57.5361 54.2392 56.7969 55.15 56.7969H65.05C65.9608 56.7969 66.7 57.5361 66.7 58.4469C66.7 59.3577 65.9608 60.0969 65.05 60.0969Z" fill="#76FFBD"/>
</g>
<g filter="url(#filter5_d_8054_1196)">
<path d="M84.8469 60.0969H74.9469C74.0361 60.0969 73.2969 59.3577 73.2969 58.4469C73.2969 57.5361 74.0361 56.7969 74.9469 56.7969H84.8469C85.7577 56.7969 86.4969 57.5361 86.4969 58.4469C86.4969 59.3577 85.7577 60.0969 84.8469 60.0969Z" fill="#76FFBD"/>
</g>
<g filter="url(#filter6_d_8054_1196)">
<path d="M65.0484 50.1984H15.5484C14.6376 50.1984 13.8984 49.4592 13.8984 48.5484C13.8984 47.6376 14.6376 46.8984 15.5484 46.8984H65.0484C65.9592 46.8984 66.6984 47.6376 66.6984 48.5484C66.6984 49.4592 65.9592 50.1984 65.0484 50.1984Z" fill="#76FFBD"/>
</g>
<defs>
<filter id="filter0_dd_8054_1196" x="0" y="0" width="100.398" height="74" filterUnits="userSpaceOnUse" color-interpolation-filters="sRGB">
<feFlood flood-opacity="0" result="BackgroundImageFix"/>
<feColorMatrix in="SourceAlpha" type="matrix" values="0 0 0 0 0 0 0 0 0 0 0 0 0 0 0 0 0 0 127 0" result="hardAlpha"/>
<feOffset/>
<feGaussianBlur stdDeviation="0.5"/>
<feComposite in2="hardAlpha" operator="out"/>
<feColorMatrix type="matrix" values="0 0 0 0 0.462745 0 0 0 0 1 0 0 0 0 0.741176 0 0 0 0.01 0"/>
<feBlend mode="normal" in2="BackgroundImageFix" result="effect1_dropShadow_8054_1196"/>
<feColorMatrix in="SourceAlpha" type="matrix" values="0 0 0 0 0 0 0 0 0 0 0 0 0 0 0 0 0 0 127 0" result="hardAlpha"/>
<feOffset/>
<feGaussianBlur stdDeviation="2"/>
<feComposite in2="hardAlpha" operator="out"/>
<feColorMatrix type="matrix" values="0 0 0 0 0.462745 0 0 0 0 1 0 0 0 0 0.741176 0 0 0 0.4 0"/>
<feBlend mode="normal" in2="effect1_dropShadow_8054_1196" result="effect2_dropShadow_8054_1196"/>
<feBlend mode="normal" in="SourceGraphic" in2="effect2_dropShadow_8054_1196" result="shape"/>
</filter>
<filter id="filter1_d_8054_1196" x="9.89844" y="23.1016" width="21.2031" height="21.2031" filterUnits="userSpaceOnUse" color-interpolation-filters="sRGB">
<feFlood flood-opacity="0" result="BackgroundImageFix"/>
<feColorMatrix in="SourceAlpha" type="matrix" values="0 0 0 0 0 0 0 0 0 0 0 0 0 0 0 0 0 0 127 0" result="hardAlpha"/>
<feOffset/>
<feGaussianBlur stdDeviation="2"/>
<feComposite in2="hardAlpha" operator="out"/>
<feColorMatrix type="matrix" values="0 0 0 0 0.462745 0 0 0 0 1 0 0 0 0 0.741176 0 0 0 0.4 0"/>
<feBlend mode="normal" in2="BackgroundImageFix" result="effect1_dropShadow_8054_1196"/>
<feBlend mode="normal" in="SourceGraphic" in2="effect1_dropShadow_8054_1196" result="shape"/>
</filter>
<filter id="filter2_d_8054_1196" x="9.89844" y="52.7969" width="21.2031" height="11.2969" filterUnits="userSpaceOnUse" color-interpolation-filters="sRGB">
<feFlood flood-opacity="0" result="BackgroundImageFix"/>
<feColorMatrix in="SourceAlpha" type="matrix" values="0 0 0 0 0 0 0 0 0 0 0 0 0 0 0 0 0 0 127 0" result="hardAlpha"/>
<feOffset/>
<feGaussianBlur stdDeviation="2"/>
<feComposite in2="hardAlpha" operator="out"/>
<feColorMatrix type="matrix" values="0 0 0 0 0.462745 0 0 0 0 1 0 0 0 0 0.741176 0 0 0 0.4 0"/>
<feBlend mode="normal" in2="BackgroundImageFix" result="effect1_dropShadow_8054_1196"/>
<feBlend mode="normal" in="SourceGraphic" in2="effect1_dropShadow_8054_1196" result="shape"/>
</filter>
<filter id="filter3_d_8054_1196" x="29.7031" y="52.7969" width="21.2031" height="11.2969" filterUnits="userSpaceOnUse" color-interpolation-filters="sRGB">
<feFlood flood-opacity="0" result="BackgroundImageFix"/>
<feColorMatrix in="SourceAlpha" type="matrix" values="0 0 0 0 0 0 0 0 0 0 0 0 0 0 0 0 0 0 127 0" result="hardAlpha"/>
<feOffset/>
<feGaussianBlur stdDeviation="2"/>
<feComposite in2="hardAlpha" operator="out"/>
<feColorMatrix type="matrix" values="0 0 0 0 0.462745 0 0 0 0 1 0 0 0 0 0.741176 0 0 0 0.4 0"/>
<feBlend mode="normal" in2="BackgroundImageFix" result="effect1_dropShadow_8054_1196"/>
<feBlend mode="normal" in="SourceGraphic" in2="effect1_dropShadow_8054_1196" result="shape"/>
</filter>
<filter id="filter4_d_8054_1196" x="49.5" y="52.7969" width="21.2031" height="11.2969" filterUnits="userSpaceOnUse" color-interpolation-filters="sRGB">
<feFlood flood-opacity="0" result="BackgroundImageFix"/>
<feColorMatrix in="SourceAlpha" type="matrix" values="0 0 0 0 0 0 0 0 0 0 0 0 0 0 0 0 0 0 127 0" result="hardAlpha"/>
<feOffset/>
<feGaussianBlur stdDeviation="2"/>
<feComposite in2="hardAlpha" operator="out"/>
<feColorMatrix type="matrix" values="0 0 0 0 0.462745 0 0 0 0 1 0 0 0 0 0.741176 0 0 0 0.4 0"/>
<feBlend mode="normal" in2="BackgroundImageFix" result="effect1_dropShadow_8054_1196"/>
<feBlend mode="normal" in="SourceGraphic" in2="effect1_dropShadow_8054_1196" result="shape"/>
</filter>
<filter id="filter5_d_8054_1196" x="69.2969" y="52.7969" width="21.2031" height="11.2969" filterUnits="userSpaceOnUse" color-interpolation-filters="sRGB">
<feFlood flood-opacity="0" result="BackgroundImageFix"/>
<feColorMatrix in="SourceAlpha" type="matrix" values="0 0 0 0 0 0 0 0 0 0 0 0 0 0 0 0 0 0 127 0" result="hardAlpha"/>
<feOffset/>
<feGaussianBlur stdDeviation="2"/>
<feComposite in2="hardAlpha" operator="out"/>
<feColorMatrix type="matrix" values="0 0 0 0 0.462745 0 0 0 0 1 0 0 0 0 0.741176 0 0 0 0.4 0"/>
<feBlend mode="normal" in2="BackgroundImageFix" result="effect1_dropShadow_8054_1196"/>
<feBlend mode="normal" in="SourceGraphic" in2="effect1_dropShadow_8054_1196" result="shape"/>
</filter>
<filter id="filter6_d_8054_1196" x="9.89844" y="42.8984" width="60.7969" height="11.2969" filterUnits="userSpaceOnUse" color-interpolation-filters="sRGB">
<feFlood flood-opacity="0" result="BackgroundImageFix"/>
<feColorMatrix in="SourceAlpha" type="matrix" values="0 0 0 0 0 0 0 0 0 0 0 0 0 0 0 0 0 0 127 0" result="hardAlpha"/>
<feOffset/>
<feGaussianBlur stdDeviation="2"/>
<feComposite in2="hardAlpha" operator="out"/>
<feColorMatrix type="matrix" values="0 0 0 0 0.462745 0 0 0 0 1 0 0 0 0 0.741176 0 0 0 0.4 0"/>
<feBlend mode="normal" in2="BackgroundImageFix" result="effect1_dropShadow_8054_1196"/>
<feBlend mode="normal" in="SourceGraphic" in2="effect1_dropShadow_8054_1196" result="shape"/>
</filter>
</defs>
</svg>
