<svg width="30" height="30" viewBox="0 0 30 30" fill="none" xmlns="http://www.w3.org/2000/svg">
<rect width="30" height="30" rx="15" fill="#D9D9D9"/>
<path d="M7.56813 7.90361C7.31211 8.15964 7.28884 8.56027 7.49831 8.8426L7.56813 8.92348L9.20975 10.6687C7.36169 11.9663 5.98045 13.9043 5.40652 16.1971C5.30981 16.5835 5.54462 16.9751 5.93097 17.0719C6.31734 17.1685 6.70894 16.9338 6.80566 16.5473C7.31477 14.5135 8.57214 12.8078 10.2481 11.7068L11.9882 13.447C11.3079 14.1408 10.8884 15.0912 10.8884 16.1396C10.8884 18.2639 12.6104 19.9858 14.7345 19.9858C15.783 19.9858 16.7334 19.5663 17.4272 18.886L19.7713 21.2329C20.053 21.5145 20.5095 21.5145 20.7911 21.2329C21.0472 20.9769 21.0705 20.5762 20.8609 20.2939L20.7911 20.213L18.2603 17.679L18.2614 17.6775L11.5795 10.9984L11.5807 10.9967L10.491 9.90966L8.588 7.90361C8.30637 7.62198 7.84976 7.62198 7.56813 7.90361ZM14.7345 8.9236C13.7727 8.9236 12.8394 9.06597 11.9567 9.33226L13.1462 10.5209C13.6614 10.4191 14.1926 10.3659 14.7345 10.3659C18.5067 10.3659 21.7633 12.9431 22.6644 16.5518C22.761 16.9381 23.1524 17.1731 23.5389 17.0767C23.9253 16.9801 24.1603 16.5887 24.0638 16.2022C23.0032 11.9551 19.1725 8.9236 14.7345 8.9236ZM14.9217 12.2979L18.5768 15.9525C18.4789 13.9747 16.8953 12.3925 14.9217 12.2979Z" fill="#807DF0"/>
</svg>
