<svg width="30" height="33" viewBox="0 0 30 33" fill="none" xmlns="http://www.w3.org/2000/svg">
<rect x="4.28516" y="18.6428" width="18" height="9.42857" fill="#807DF0"/>
<path fill-rule="evenodd" clip-rule="evenodd" d="M4.875 14.0998V10.9595C4.875 5.26177 9.40812 0.642822 15 0.642822C20.5919 0.642822 25.125 5.26177 25.125 10.9595V14.0998C26.7972 14.2271 27.886 14.5482 28.6819 15.3593C30 16.7023 30 18.8638 30 23.1867C30 27.5096 30 29.6711 28.6819 31.0141C27.3639 32.3571 25.2426 32.3571 21 32.3571H9C4.75736 32.3571 2.63604 32.3571 1.31802 31.0141C0 29.6711 0 27.5096 0 23.1867C0 18.8638 0 16.7023 1.31802 15.3593C2.11396 14.5482 3.20287 14.2271 4.875 14.0998ZM7.125 10.9595C7.125 6.52794 10.6508 2.93542 15 2.93542C19.3492 2.93542 22.875 6.52794 22.875 10.9595V14.0218C22.3005 14.0163 21.6772 14.0163 21 14.0163H9C8.32273 14.0163 7.69951 14.0163 7.125 14.0218V10.9595ZM15 18.9836C15.6213 18.9836 16.125 19.4968 16.125 20.1299V26.2435C16.125 26.8766 15.6213 27.3898 15 27.3898C14.3787 27.3898 13.875 26.8766 13.875 26.2435V20.1299C13.875 19.4968 14.3787 18.9836 15 18.9836Z" fill="white"/>
</svg>
