<svg width="18" height="18" viewBox="0 0 18 18" fill="none" xmlns="http://www.w3.org/2000/svg">
<path fill-rule="evenodd" clip-rule="evenodd" d="M0 4.05C0 1.81325 1.7269 0 3.85715 0H8.57144C10.465 0 12 1.61177 12 3.6V4.5C12 4.99705 11.6163 5.4 11.1429 5.4C10.6695 5.4 10.2857 4.99705 10.2857 4.5V3.6C10.2857 2.60589 9.51824 1.8 8.57144 1.8H3.85715C2.67368 1.8 1.71429 2.80736 1.71429 4.05V13.95C1.71429 15.1926 2.67368 16.2 3.85715 16.2H8.57144C9.51824 16.2 10.2857 15.3941 10.2857 14.4V13.5C10.2857 13.0029 10.6695 12.6 11.1429 12.6C11.6163 12.6 12 13.0029 12 13.5V14.4C12 16.3882 10.465 18 8.57144 18H3.85715C1.7269 18 0 16.1868 0 13.95V4.05ZM13.9654 5.6636C14.3001 5.31213 14.8428 5.31213 15.1775 5.6636L17.749 8.36361C18.0837 8.71506 18.0837 9.28494 17.749 9.63639L15.1775 12.3364C14.8428 12.6878 14.3001 12.6878 13.9654 12.3364C13.6306 11.9849 13.6306 11.4151 13.9654 11.0636L15.0736 9.9H7.71429C7.24089 9.9 6.85715 9.49707 6.85715 9C6.85715 8.50293 7.24089 8.1 7.71429 8.1H15.0736L13.9654 6.9364C13.6306 6.58492 13.6306 6.01508 13.9654 5.6636Z" fill="#D9D9D9"/>
</svg>
