<svg width="125" height="43" viewBox="0 0 125 43" fill="none" xmlns="http://www.w3.org/2000/svg">
<path d="M21.966 17.545L26.8599 23.2588L43.9053 42.9949H34.0892L21.966 28.9726L17.0722 23.2588L0 3.41229H9.78765L21.966 17.545Z" fill="white"/>
<path d="M16.9527 32.0379L12.0588 26.3241L21.9463 14.4663H31.7892L16.9527 32.0379Z" fill="#807DF0"/>
<path d="M27.0006 14.4663L31.8944 20.1801L21.9018 32.1415H12.0588L27.0006 14.4663Z" fill="#807DF0"/>
<path d="M62.0705 42.9949H54.7251C54.5372 42.9949 54.3336 42.974 54.1143 42.9322C53.9003 42.8853 53.6862 42.8148 53.4722 42.7208C53.2633 42.6268 53.0623 42.5068 52.8692 42.3606C52.676 42.2092 52.5037 42.0291 52.3523 41.8203C52.2062 41.6062 52.0887 41.3608 51.9999 41.0841C51.9112 40.8022 51.8668 40.4864 51.8668 40.1366V34.6236C51.8668 34.4357 51.8877 34.2347 51.9295 34.0206C51.9765 33.8014 52.0469 33.5873 52.1409 33.3785C52.2349 33.1644 52.3576 32.9608 52.509 32.7677C52.6604 32.5745 52.8405 32.4048 53.0493 32.2587C53.2633 32.1073 53.5087 31.9872 53.7854 31.8984C54.0621 31.8097 54.3753 31.7653 54.7251 31.7653H62.0705V33.8014H54.7251C54.4589 33.8014 54.2553 33.8718 54.1143 34.0128C53.9733 34.1538 53.9029 34.3626 53.9029 34.6393V40.1366C53.9029 40.3976 53.9733 40.6012 54.1143 40.7474C54.2605 40.8884 54.4641 40.9588 54.7251 40.9588H62.0705V42.9949Z" fill="white"/>
<path d="M72.8694 40.1366C72.8694 40.4864 72.825 40.8022 72.7363 41.0841C72.6475 41.3608 72.5301 41.6062 72.3839 41.8203C72.2377 42.0291 72.068 42.2092 71.8749 42.3606C71.6817 42.5068 71.4781 42.6268 71.2641 42.7208C71.0552 42.8148 70.8412 42.8853 70.6219 42.9322C70.4079 42.974 70.2043 42.9949 70.0111 42.9949H66.3384C66.0565 42.9949 65.7485 42.9453 65.4144 42.8461C65.0802 42.7469 64.7696 42.5851 64.4825 42.3606C64.2006 42.1309 63.963 41.8359 63.7699 41.4757C63.5819 41.1102 63.4879 40.6639 63.4879 40.1366V37.3801C63.4879 36.858 63.5819 36.4169 63.7699 36.0567C63.963 35.6912 64.2006 35.3963 64.4825 35.1718C64.7696 34.9421 65.0802 34.7776 65.4144 34.6784C65.7485 34.5792 66.0565 34.5296 66.3384 34.5296H70.0111C70.5332 34.5296 70.9769 34.6236 71.3424 34.8116C71.7078 34.9995 72.0028 35.237 72.2273 35.5242C72.4518 35.8061 72.6136 36.1141 72.7128 36.4482C72.8172 36.7823 72.8694 37.093 72.8694 37.3801V40.1366ZM70.8334 37.3958C70.8334 37.1139 70.7629 36.905 70.6219 36.7693C70.481 36.6336 70.2774 36.5657 70.0111 36.5657H66.3541C66.0826 36.5657 65.8764 36.6362 65.7354 36.7771C65.5945 36.9129 65.524 37.1139 65.524 37.3801V40.1366C65.524 40.4029 65.5945 40.6065 65.7354 40.7474C65.8764 40.8884 66.0826 40.9588 66.3541 40.9588H70.0111C70.2878 40.9588 70.494 40.8884 70.6298 40.7474C70.7655 40.6065 70.8334 40.4029 70.8334 40.1366V37.3958Z" fill="white"/>
<path d="M83.9894 42.9949H81.9533V38.2963C81.9533 38.0301 81.9063 37.7925 81.8124 37.5837C81.7236 37.3697 81.6009 37.1869 81.4443 37.0355C81.2877 36.8841 81.1023 36.7693 80.8883 36.691C80.6795 36.6075 80.4524 36.5657 80.207 36.5657H76.6439V42.9949H74.6079V35.5398C74.6079 35.3989 74.634 35.2684 74.6862 35.1483C74.7384 35.023 74.8115 34.916 74.9055 34.8272C74.9994 34.7332 75.1091 34.6602 75.2344 34.608C75.3597 34.5557 75.4928 34.5296 75.6337 34.5296H80.2227C80.4785 34.5296 80.7473 34.5584 81.0293 34.6158C81.3164 34.6732 81.5983 34.7672 81.875 34.8977C82.1569 35.023 82.4232 35.1848 82.6738 35.3832C82.9296 35.5764 83.1541 35.8139 83.3472 36.0958C83.5456 36.3725 83.7022 36.6936 83.8171 37.059C83.9319 37.4245 83.9894 37.8369 83.9894 38.2963V42.9949Z" fill="white"/>
<path d="M95.1563 42.9949H93.1202V38.2963C93.1202 38.0301 93.0733 37.7925 92.9793 37.5837C92.8905 37.3697 92.7678 37.1869 92.6112 37.0355C92.4546 36.8841 92.2693 36.7693 92.0552 36.691C91.8464 36.6075 91.6193 36.5657 91.3739 36.5657H87.8109V42.9949H85.7748V35.5398C85.7748 35.3989 85.8009 35.2684 85.8531 35.1483C85.9053 35.023 85.9784 34.916 86.0724 34.8272C86.1664 34.7332 86.276 34.6602 86.4013 34.608C86.5266 34.5557 86.6597 34.5296 86.8007 34.5296H91.3896C91.6454 34.5296 91.9143 34.5584 92.1962 34.6158C92.4833 34.6732 92.7652 34.7672 93.0419 34.8977C93.3238 35.023 93.5901 35.1848 93.8407 35.3832C94.0965 35.5764 94.321 35.8139 94.5141 36.0958C94.7125 36.3725 94.8692 36.6936 94.984 37.059C95.0989 37.4245 95.1563 37.8369 95.1563 38.2963V42.9949Z" fill="white"/>
<path d="M106.049 37.3331C106.049 37.615 106 37.9204 105.9 38.2493C105.801 38.573 105.639 38.8758 105.415 39.1577C105.196 39.4344 104.906 39.6667 104.546 39.8547C104.191 40.0426 103.757 40.1366 103.246 40.1366H99.5729V38.2024H103.246C103.522 38.2024 103.736 38.1188 103.888 37.9518C104.039 37.7795 104.115 37.568 104.115 37.3175C104.115 37.0512 104.029 36.8424 103.856 36.691C103.689 36.5396 103.486 36.4639 103.246 36.4639H99.5729C99.2962 36.4639 99.0822 36.55 98.9308 36.7223C98.7794 36.8894 98.7037 37.0982 98.7037 37.3488V40.1914C98.7037 40.4629 98.7872 40.6743 98.9543 40.8257C99.1266 40.9771 99.338 41.0528 99.5886 41.0528H103.246V42.9949H99.5729C99.291 42.9949 98.9856 42.9453 98.6567 42.8461C98.333 42.7469 98.0302 42.5877 97.7483 42.3684C97.4716 42.1439 97.2393 41.8542 97.0514 41.4992C96.8634 41.139 96.7695 40.703 96.7695 40.1914V37.3331C96.7695 37.0512 96.8191 36.7484 96.9182 36.4247C97.0174 36.0958 97.1767 35.793 97.3959 35.5163C97.6204 35.2344 97.9102 34.9995 98.2652 34.8116C98.6254 34.6236 99.0613 34.5296 99.5729 34.5296H103.246C103.528 34.5296 103.83 34.5792 104.154 34.6784C104.483 34.7776 104.786 34.9395 105.062 35.1639C105.344 35.3832 105.579 35.673 105.767 36.0332C105.955 36.3882 106.049 36.8215 106.049 37.3331Z" fill="white"/>
<path d="M115.619 42.9949H110.098C109.816 42.9949 109.508 42.9453 109.174 42.8461C108.84 42.7469 108.529 42.5851 108.242 42.3606C107.96 42.1309 107.722 41.8359 107.529 41.4757C107.341 41.1102 107.247 40.6639 107.247 40.1366V37.3801C107.247 37.1869 107.268 36.9833 107.31 36.7693C107.357 36.5552 107.427 36.3438 107.521 36.135C107.615 35.9209 107.735 35.7173 107.882 35.5242C108.033 35.331 108.213 35.1613 108.422 35.0152C108.636 34.869 108.881 34.7515 109.158 34.6628C109.435 34.574 109.748 34.5296 110.098 34.5296H115.619V36.5657H110.098C109.831 36.5657 109.628 36.6336 109.487 36.7693C109.351 36.905 109.283 37.1139 109.283 37.3958V40.1366C109.283 40.4029 109.354 40.6065 109.495 40.7474C109.636 40.8884 109.842 40.9588 110.113 40.9588H115.619V42.9949Z" fill="white"/>
<path d="M125 36.5657H121.445V42.9949H119.385V36.5657H116.738V34.5296H119.385V31.7653H121.445V34.5296H125V36.5657Z" fill="white"/>
<path d="M82.5656 24.859H77.9811V10.2631L69.9154 24.1245C69.7174 24.4781 69.4374 24.7457 69.0754 24.928C68.7257 25.1104 68.3471 25.2016 67.938 25.2016C67.5289 25.2016 67.1687 25.1104 66.8189 24.928C66.4805 24.7457 66.2118 24.4781 66.0138 24.1245L57.9133 10.2631V24.859H53.3636V2.24687C53.3636 1.73393 53.5154 1.27807 53.819 0.879307C54.1338 0.48054 54.5421 0.212991 55.0436 0.075808C55.2887 0.0187195 55.5338 0.00167818 55.7789 0.024684C56.0231 0.0357608 56.2569 0.0877369 56.4784 0.178908C56.7113 0.259002 56.9215 0.378292 57.1082 0.537628C57.2949 0.685888 57.4527 0.86823 57.581 1.08465L67.938 18.6722L78.296 1.08465C78.5646 0.651805 78.9318 0.344209 79.3985 0.161867C79.8765 -0.0204756 80.3728 -0.0485938 80.8857 0.07666C81.3759 0.212991 81.778 0.481392 82.0929 0.880159C82.4077 1.27893 82.5656 1.73478 82.5656 2.24773V24.8599V24.859Z" fill="white"/>
<path d="M90.807 24.8586H86.2573V0.349731H90.807V24.8586Z" fill="white"/>
<path d="M107.584 9.10046L110.663 12.6382L121.389 24.8586H115.212L107.584 16.176L104.505 12.6382L93.762 0.349731H99.92L107.584 9.10046Z" fill="white"/>
<path d="M104.521 17.9654L101.442 14.4276L107.664 7.08539H113.857L104.521 17.9654Z" fill="#807DF0"/>
<path d="M110.844 7.08521L113.924 10.623L107.636 18.0292H101.443L110.844 7.08521Z" fill="#807DF0"/>
</svg>
