<svg width="108" height="63" viewBox="0 0 108 63" fill="none" xmlns="http://www.w3.org/2000/svg">
<path d="M14.9514 63H4.18823C3.91284 63 3.6145 62.9694 3.29321 62.9082C2.97957 62.8394 2.66593 62.7361 2.35229 62.5984C2.04631 62.4607 1.75179 62.2847 1.46875 62.0706C1.18571 61.8487 0.933268 61.5848 0.711426 61.2788C0.497233 60.9652 0.325114 60.6056 0.195068 60.2002C0.0650228 59.7871 0 59.3243 0 58.8118V50.7336C0 50.4583 0.030599 50.1637 0.0917969 49.8501C0.160645 49.5288 0.263916 49.2152 0.401611 48.9092C0.539307 48.5955 0.719076 48.2972 0.940918 48.0142C1.16276 47.7311 1.42668 47.4825 1.73267 47.2683C2.04631 47.0465 2.40584 46.8705 2.81128 46.7405C3.21672 46.6104 3.6757 46.5454 4.18823 46.5454H14.9514V49.5288H4.18823C3.7981 49.5288 3.49976 49.6321 3.29321 49.8386C3.08667 50.0452 2.9834 50.3512 2.9834 50.7566V58.8118C2.9834 59.1943 3.08667 59.4926 3.29321 59.7068C3.50741 59.9133 3.80575 60.0166 4.18823 60.0166H14.9514V63Z" fill="#F9F8FE"/>
<path d="M30.7749 58.8118C30.7749 59.3243 30.7099 59.7871 30.5798 60.2002C30.4498 60.6056 30.2777 60.9652 30.0635 61.2788C29.8493 61.5848 29.6007 61.8487 29.3176 62.0706C29.0346 62.2847 28.7362 62.4607 28.4226 62.5984C28.1166 62.7361 27.803 62.8394 27.4817 62.9082C27.1681 62.9694 26.8697 63 26.5867 63H21.2051C20.792 63 20.3407 62.9273 19.8511 62.782C19.3615 62.6366 18.9063 62.3995 18.4856 62.0706C18.0725 61.734 17.7244 61.3018 17.4414 60.7739C17.166 60.2384 17.0283 59.5844 17.0283 58.8118V54.7727C17.0283 54.0077 17.166 53.3613 17.4414 52.8335C17.7244 52.298 18.0725 51.8658 18.4856 51.5369C18.9063 51.2003 19.3615 50.9593 19.8511 50.814C20.3407 50.6686 20.792 50.5959 21.2051 50.5959H26.5867C27.3516 50.5959 28.0019 50.7336 28.5374 51.009C29.0728 51.2844 29.505 51.6325 29.834 52.0532C30.1629 52.4663 30.4001 52.9176 30.5454 53.4072C30.6984 53.8968 30.7749 54.352 30.7749 54.7727V58.8118ZM27.7915 54.7957C27.7915 54.3826 27.6882 54.0766 27.4817 53.8777C27.2751 53.6788 26.9768 53.5793 26.5867 53.5793H21.228C20.8302 53.5793 20.5281 53.6826 20.3215 53.8892C20.115 54.0881 20.0117 54.3826 20.0117 54.7727V58.8118C20.0117 59.2019 20.115 59.5002 20.3215 59.7068C20.5281 59.9133 20.8302 60.0166 21.228 60.0166H26.5867C26.9921 60.0166 27.2943 59.9133 27.4932 59.7068C27.6921 59.5002 27.7915 59.2019 27.7915 58.8118V54.7957Z" fill="#F9F8FE"/>
<path d="M47.0688 63H44.0854V56.1152C44.0854 55.7251 44.0166 55.377 43.8789 55.071C43.7489 54.7574 43.5691 54.4897 43.3396 54.2678C43.1101 54.046 42.8385 53.8777 42.5249 53.7629C42.2189 53.6405 41.8862 53.5793 41.5266 53.5793H36.3057V63H33.3223V52.0762C33.3223 51.8696 33.3605 51.6784 33.437 51.5024C33.5135 51.3188 33.6206 51.162 33.7583 51.032C33.896 50.8943 34.0566 50.7872 34.2402 50.7107C34.4238 50.6342 34.6189 50.5959 34.8254 50.5959H41.5496C41.9244 50.5959 42.3184 50.638 42.7314 50.7222C43.1522 50.8063 43.5653 50.944 43.9707 51.1353C44.3838 51.3188 44.7739 51.556 45.1411 51.8467C45.5159 52.1297 45.8449 52.4778 46.1279 52.8909C46.4186 53.2963 46.6481 53.7668 46.8164 54.3022C46.9847 54.8377 47.0688 55.4421 47.0688 56.1152V63Z" fill="#F9F8FE"/>
<path d="M63.4316 63H60.4482V56.1152C60.4482 55.7251 60.3794 55.377 60.2417 55.071C60.1117 54.7574 59.9319 54.4897 59.7024 54.2678C59.4729 54.046 59.2013 53.8777 58.8877 53.7629C58.5817 53.6405 58.2489 53.5793 57.8894 53.5793H52.6685V63H49.6851V52.0762C49.6851 51.8696 49.7233 51.6784 49.7998 51.5024C49.8763 51.3188 49.9834 51.162 50.1211 51.032C50.2588 50.8943 50.4194 50.7872 50.603 50.7107C50.7866 50.6342 50.9817 50.5959 51.1882 50.5959H57.9124C58.2872 50.5959 58.6812 50.638 59.0942 50.7222C59.515 50.8063 59.9281 50.944 60.3335 51.1353C60.7466 51.3188 61.1367 51.556 61.5039 51.8467C61.8787 52.1297 62.2077 52.4778 62.4907 52.8909C62.7814 53.2963 63.0109 53.7668 63.1792 54.3022C63.3475 54.8377 63.4316 55.4421 63.4316 56.1152V63Z" fill="#F9F8FE"/>
<path d="M79.3928 54.7039C79.3928 55.1169 79.3202 55.5645 79.1748 56.0464C79.0295 56.5207 78.7923 56.9644 78.4634 57.3774C78.1421 57.7829 77.7175 58.1233 77.1897 58.3987C76.6695 58.6741 76.0346 58.8118 75.2849 58.8118H69.9033V55.9775H75.2849C75.6903 55.9775 76.004 55.8551 76.2258 55.6104C76.4477 55.3579 76.5586 55.0481 76.5586 54.6809C76.5586 54.2908 76.4324 53.9848 76.1799 53.7629C75.9351 53.5411 75.6368 53.4302 75.2849 53.4302H69.9033C69.4979 53.4302 69.1842 53.5564 68.9624 53.8088C68.7406 54.0536 68.6296 54.3596 68.6296 54.7268V58.8921C68.6296 59.2899 68.752 59.5997 68.9968 59.8215C69.2493 60.0434 69.5591 60.1543 69.9263 60.1543H75.2849V63H69.9033C69.4902 63 69.0427 62.9273 68.5608 62.782C68.0865 62.6366 67.6428 62.4033 67.2297 62.082C66.8243 61.7531 66.4839 61.3285 66.2085 60.8083C65.9331 60.2805 65.7954 59.6418 65.7954 58.8921V54.7039C65.7954 54.2908 65.8681 53.8471 66.0134 53.3728C66.1588 52.8909 66.3921 52.4472 66.7134 52.0417C67.0423 51.6287 67.4669 51.2844 67.9871 51.009C68.5149 50.7336 69.1536 50.5959 69.9033 50.5959H75.2849C75.698 50.5959 76.1417 50.6686 76.616 50.814C77.0979 50.9593 77.5416 51.1965 77.947 51.5254C78.3601 51.8467 78.7043 52.2712 78.9797 52.7991C79.2551 53.3193 79.3928 53.9542 79.3928 54.7039Z" fill="#F9F8FE"/>
<path d="M93.4148 63H85.3252C84.9121 63 84.4608 62.9273 83.9712 62.782C83.4816 62.6366 83.0265 62.3995 82.6057 62.0706C82.1926 61.734 81.8446 61.3018 81.5615 60.7739C81.2861 60.2384 81.1484 59.5844 81.1484 58.8118V54.7727C81.1484 54.4897 81.179 54.1913 81.2402 53.8777C81.3091 53.564 81.4124 53.2542 81.55 52.9482C81.6877 52.6346 81.8637 52.3363 82.0779 52.0532C82.2997 51.7702 82.5636 51.5216 82.8696 51.3074C83.1833 51.0932 83.5428 50.9211 83.9482 50.791C84.3537 50.661 84.8127 50.5959 85.3252 50.5959H93.4148V53.5793H85.3252C84.9351 53.5793 84.6367 53.6788 84.4302 53.8777C84.2313 54.0766 84.1318 54.3826 84.1318 54.7957V58.8118C84.1318 59.2019 84.2351 59.5002 84.4417 59.7068C84.6482 59.9133 84.9504 60.0166 85.3481 60.0166H93.4148V63Z" fill="#F9F8FE"/>
<path d="M107.161 53.5793H101.952V63H98.9341V53.5793H95.0557V50.5959H98.9341V46.5454H101.952V50.5959H107.161V53.5793Z" fill="#F9F8FE"/>
<path d="M44.9826 36.4257H38.2649V15.0385L26.4464 35.3495C26.1563 35.8676 25.746 36.2596 25.2156 36.5268C24.7031 36.794 24.1484 36.9276 23.5489 36.9276C22.9495 36.9276 22.4217 36.794 21.9091 36.5268C21.4132 36.2596 21.0196 35.8676 20.7295 35.3495L8.85977 15.0385V36.4257H2.19324V3.29232C2.19324 2.54071 2.41562 1.87275 2.8604 1.28844C3.32179 0.70413 3.91995 0.312093 4.65485 0.111081C5.014 0.0274295 5.37313 0.00245902 5.73228 0.0361692C6.09014 0.0524 6.43268 0.12856 6.75731 0.262152C7.09856 0.379514 7.40658 0.554307 7.68009 0.787782C7.95361 1.00502 8.18495 1.27221 8.37283 1.58933L23.5489 27.3601L38.7263 1.58933C39.12 0.955084 39.658 0.504366 40.3418 0.237182C41.0422 -0.0300027 41.7695 -0.071204 42.521 0.112329C43.2393 0.312093 43.8285 0.705379 44.2899 1.28969C44.7513 1.874 44.9826 2.54196 44.9826 3.29357V36.4269V36.4257Z" fill="#F9F8FE"/>
<path d="M57.0586 36.425H50.392V0.512451H57.0586V36.425Z" fill="#F9F8FE"/>
<path d="M81.6412 13.3348L86.1529 18.5187L101.87 36.425H92.8194L81.6412 23.7026L77.1295 18.5187L61.3885 0.512451H70.4118L81.6412 13.3348Z" fill="#F9F8FE"/>
<path d="M77.1543 26.3246L72.6426 21.1407L81.7592 10.3821H90.8337L77.1543 26.3246Z" fill="#807DF0"/>
<path d="M86.4193 10.382L90.931 15.5658L81.7185 26.418H72.6427L86.4193 10.382Z" fill="#807DF0"/>
</svg>
