<svg width="30" height="21" viewBox="0 0 30 21" fill="none" xmlns="http://www.w3.org/2000/svg">
<path d="M22.1148 20.0008C24.1191 18.1969 26.003 16.2636 27.7544 14.2132C28.6974 13.0668 30.1212 11.8095 29.9918 10.2008C29.8623 8.5921 28.494 7.90794 27.4955 6.94643C25.6722 5.19938 24.0757 3.23012 22.7434 1.08492C21.1533 -1.4298 17.1963 0.881521 18.7495 3.41473C19.758 5.02328 20.8827 6.55592 22.1148 8.0004C22.797 8.77695 23.5191 9.51756 24.2782 10.2193C24.685 10.6076 25.8684 12.3272 25.5355 11.1253L25.7759 9.27625C23.8761 12.08 21.5561 14.5746 18.8974 16.6725C16.697 18.6695 19.9699 21.9423 22.1702 19.9268L22.1148 20.0008Z" fill="#EEEEEE"/>
<path d="M25.3875 7.4828C17.6674 7.10065 9.93175 7.16238 2.21876 7.66771C-0.721242 7.8711 -0.758224 12.4938 2.21876 12.2904C9.93175 11.785 17.6674 11.7233 25.3875 12.1054C28.3645 12.2349 28.346 7.61224 25.3875 7.4828Z" fill="#EEEEEE"/>
</svg>
