<svg width="111" height="43" viewBox="0 0 111 43" fill="none" xmlns="http://www.w3.org/2000/svg">
<path d="M74 43H69.4472V28.7738L61.4373 41.9743C61.2407 42.3111 60.9626 42.5659 60.6031 42.7395C60.2558 42.9132 59.8798 43 59.4736 43C59.0673 43 58.7096 42.9132 58.3622 42.7395C58.0261 42.5659 57.7593 42.3111 57.5627 41.9743L49.5182 28.7738L49.5 43H45V21.1397C45 20.6513 45.1507 20.2171 45.4522 19.8374C45.7649 19.4576 46.1703 19.2028 46.6683 19.0722C46.9117 19.0178 47.1551 19.0016 47.3985 19.0235C47.6411 19.0341 47.8732 19.0836 48.0932 19.1704C48.3245 19.2467 48.5333 19.3603 48.7187 19.512C48.904 19.6532 49.0608 19.8268 49.1881 20.0329L59.4736 36.7819L69.7599 20.0329C70.0267 19.6207 70.3913 19.3278 70.8548 19.1541C71.3295 18.9805 71.8223 18.9537 72.3317 19.073C72.8185 19.2028 73.2178 19.4584 73.5305 19.8382C73.8432 20.218 74 20.6521 74 21.1406V43Z" fill="white"/>
<path d="M82 43H78V19H82V43Z" fill="white"/>
<path d="M58.5938 10.291C58.5938 10.7422 58.5352 11.1494 58.418 11.5127C58.3066 11.8701 58.1572 12.1865 57.9697 12.4619C57.7822 12.7373 57.5625 12.9717 57.3105 13.165C57.0586 13.3584 56.7979 13.5166 56.5283 13.6396C56.2588 13.7627 55.9834 13.8535 55.7021 13.9121C55.4268 13.9707 55.166 14 54.9199 14H46.1045V11.7148H54.9199C55.3594 11.7148 55.6992 11.5859 55.9395 11.3281C56.1855 11.0703 56.3086 10.7246 56.3086 10.291C56.3086 10.0801 56.2764 9.88672 56.2119 9.71094C56.1475 9.53516 56.0537 9.38281 55.9307 9.25391C55.8135 9.125 55.667 9.02539 55.4912 8.95508C55.3213 8.88477 55.1309 8.84961 54.9199 8.84961H49.6641C49.2949 8.84961 48.8965 8.78516 48.4688 8.65625C48.041 8.52148 47.6426 8.30762 47.2734 8.01465C46.9102 7.72168 46.6055 7.33789 46.3594 6.86328C46.1191 6.38867 45.999 5.80859 45.999 5.12305C45.999 4.4375 46.1191 3.86035 46.3594 3.3916C46.6055 2.91699 46.9102 2.5332 47.2734 2.24023C47.6426 1.94141 48.041 1.72754 48.4688 1.59863C48.8965 1.46387 49.2949 1.39648 49.6641 1.39648H57.4424V3.68164H49.6641C49.2305 3.68164 48.8906 3.81348 48.6445 4.07715C48.4043 4.34082 48.2842 4.68945 48.2842 5.12305C48.2842 5.5625 48.4043 5.91113 48.6445 6.16895C48.8906 6.4209 49.2305 6.54688 49.6641 6.54688H54.9199H54.9375C55.1836 6.55273 55.4443 6.58789 55.7197 6.65234C55.9951 6.71094 56.2676 6.80469 56.5371 6.93359C56.8125 7.0625 57.0732 7.22656 57.3193 7.42578C57.5654 7.61914 57.7822 7.85352 57.9697 8.12891C58.1631 8.4043 58.3154 8.7207 58.4268 9.07812C58.5381 9.43555 58.5938 9.83984 58.5938 10.291ZM68.4727 6.78418H64.4824V14H62.1709V6.78418H59.2002V4.49902H62.1709V1.39648H64.4824V4.49902H68.4727V6.78418ZM80.3643 12.8486C80.3643 13.0127 80.335 13.165 80.2764 13.3057C80.2178 13.4463 80.1357 13.5693 80.0303 13.6748C79.9307 13.7744 79.8105 13.8535 79.6699 13.9121C79.5352 13.9707 79.3887 14 79.2305 14H74.0625C73.7812 14 73.4795 13.9678 73.1572 13.9033C72.8408 13.8389 72.5273 13.7363 72.2168 13.5957C71.9062 13.4492 71.6045 13.2676 71.3115 13.0508C71.0244 12.8281 70.7725 12.5615 70.5557 12.251C70.3389 11.9346 70.1631 11.5713 70.0283 11.1611C69.8994 10.751 69.835 10.2881 69.835 9.77246V4.49902H72.1201V9.77246C72.1201 10.0713 72.1699 10.3408 72.2695 10.5811C72.375 10.8154 72.5156 11.0176 72.6914 11.1875C72.8672 11.3574 73.0723 11.4893 73.3066 11.583C73.5469 11.6709 73.8047 11.7148 74.0801 11.7148H78.0791V4.49902H80.3643V12.8486ZM92.9326 10.792C92.9326 11.1846 92.8828 11.5391 92.7832 11.8555C92.6836 12.166 92.5518 12.4414 92.3877 12.6816C92.2236 12.916 92.0332 13.1182 91.8164 13.2881C91.5996 13.4521 91.3711 13.5869 91.1309 13.6924C90.8965 13.7979 90.6562 13.877 90.4102 13.9297C90.1699 13.9766 89.9414 14 89.7246 14H85.6025C85.21 14 84.8584 13.9502 84.5479 13.8506C84.2373 13.751 83.9619 13.6191 83.7217 13.4551C83.4873 13.2852 83.2852 13.0918 83.1152 12.875C82.9512 12.6582 82.8164 12.4326 82.7109 12.1982C82.6055 11.958 82.5264 11.7178 82.4736 11.4775C82.4268 11.2314 82.4033 11.0029 82.4033 10.792V7.69824C82.4033 7.1123 82.5088 6.61719 82.7197 6.21289C82.9365 5.80273 83.2031 5.47168 83.5195 5.21973C83.8418 4.96191 84.1904 4.77734 84.5654 4.66602C84.9404 4.55469 85.2861 4.49902 85.6025 4.49902H89.7246V6.78418H85.6201C85.3154 6.78418 85.084 6.86328 84.9258 7.02148C84.7676 7.17383 84.6885 7.39941 84.6885 7.69824V10.7744C84.6885 11.085 84.7646 11.3193 84.917 11.4775C85.0752 11.6357 85.3037 11.7148 85.6025 11.7148H89.7246C90.0352 11.7148 90.2666 11.6357 90.4189 11.4775C90.5713 11.3193 90.6475 11.0908 90.6475 10.792V0.482422H92.9326V10.792ZM97.4326 2.54785H95.1475V0.482422H97.4326V2.54785ZM97.4326 14H95.1475V4.49902H97.4326V14ZM109.966 10.792C109.966 11.1846 109.916 11.5391 109.816 11.8555C109.717 12.166 109.585 12.4414 109.421 12.6816C109.257 12.916 109.066 13.1182 108.85 13.2881C108.633 13.4521 108.404 13.5869 108.164 13.6924C107.93 13.7979 107.689 13.877 107.443 13.9297C107.203 13.9766 106.975 14 106.758 14H102.636C102.319 14 101.974 13.9443 101.599 13.833C101.224 13.7217 100.875 13.54 100.553 13.2881C100.236 13.0303 99.9697 12.6992 99.7529 12.2949C99.542 11.8848 99.4365 11.3838 99.4365 10.792V7.69824C99.4365 7.1123 99.542 6.61719 99.7529 6.21289C99.9697 5.80273 100.236 5.47168 100.553 5.21973C100.875 4.96191 101.224 4.77734 101.599 4.66602C101.974 4.55469 102.319 4.49902 102.636 4.49902H106.758C107.344 4.49902 107.842 4.60449 108.252 4.81543C108.662 5.02637 108.993 5.29297 109.245 5.61523C109.497 5.93164 109.679 6.27734 109.79 6.65234C109.907 7.02734 109.966 7.37598 109.966 7.69824V10.792ZM107.681 7.71582C107.681 7.39941 107.602 7.16504 107.443 7.0127C107.285 6.86035 107.057 6.78418 106.758 6.78418H102.653C102.349 6.78418 102.117 6.86328 101.959 7.02148C101.801 7.17383 101.722 7.39941 101.722 7.69824V10.792C101.722 11.0908 101.801 11.3193 101.959 11.4775C102.117 11.6357 102.349 11.7148 102.653 11.7148H106.758C107.068 11.7148 107.3 11.6357 107.452 11.4775C107.604 11.3193 107.681 11.0908 107.681 10.792V7.71582Z" fill="white"/>
<path d="M18.9884 16.5797L14.7528 22.4743L-1.54351e-06 42.8347H8.44444L18.9884 28.3688L23.224 22.4743L38 2H29.5631L18.9884 16.5797Z" fill="white"/>
<path d="M19.0116 16.5797L23.2472 22.4743L38 42.8347H29.5556L19.0116 28.3688L14.776 22.4743L0 2H8.45022L19.0116 16.5797Z" fill="white"/>
<path d="M19.003 28.1442L29.5586 42.8347H18.528H8.44748L19.003 28.1442Z" fill="#807DF0"/>
<path d="M18.997 28.1442L8.44141 42.8347H18.997V28.1442Z" fill="#6561F0"/>
<path d="M19.0087 16.6905L8.45312 2H18.7588H29.5642L19.0087 16.6905Z" fill="#807DF0"/>
<path d="M19.0069 16.6905L29.5625 2H19.0069V16.6905Z" fill="#6561F0"/>
<path d="M96.493 27.569L93.9294 31.0335L85 43H90.1111L96.493 34.4979L99.0566 31.0335L108 19H102.893L96.493 27.569Z" fill="white"/>
<path d="M96.507 27.569L99.0706 31.0335L108 43H102.889L96.507 34.4979L93.9434 31.0335L85 19H90.1146L96.507 27.569Z" fill="white"/>
<path d="M96.5017 34.3654L102.891 42.9995H96.2142H90.1128L96.5017 34.3654Z" fill="#807DF0"/>
<path d="M96.4983 34.3654L90.1094 42.9995H96.4983V34.3654Z" fill="#6561F0"/>
<path d="M96.5061 27.6341L90.1172 19H96.3548H102.895L96.5061 27.6341Z" fill="#807DF0"/>
<path d="M96.5056 27.6341L102.895 19H96.5056V27.6341Z" fill="#6561F0"/>
</svg>
