<svg width="17" height="16" viewBox="0 0 17 16" fill="none" xmlns="http://www.w3.org/2000/svg">
<path d="M11.6634 10.9329L12.0605 10.5412L11.1384 9.62127L10.7414 10.013L11.6634 10.9329ZM13.3939 10.3771L15.0593 11.2754L15.6838 10.1357L14.0184 9.23745L13.3939 10.3771ZM15.3799 13.0606L14.1415 14.2822L15.0635 15.2021L16.3019 13.9805L15.3799 13.0606ZM13.387 14.6755C12.123 14.7924 8.85301 14.6882 5.31254 11.1956L4.39056 12.1156C8.25413 15.9269 11.9314 16.113 13.5083 15.9672L13.387 14.6755ZM5.31254 11.1956C1.93773 7.86649 1.3787 5.06641 1.30911 3.85165L0.0036166 3.92526C0.0911908 5.45416 0.783407 8.55725 4.39056 12.1156L5.31254 11.1956ZM6.51145 5.85062L6.76146 5.60398L5.83951 4.68407L5.58949 4.9307L6.51145 5.85062ZM6.96047 2.46007L5.86126 1.00332L4.8145 1.78077L5.9137 3.23753L6.96047 2.46007ZM2.16423 0.686251L0.79596 2.03601L1.71794 2.95593L3.08621 1.60617L2.16423 0.686251ZM6.05047 5.39066C5.58949 4.9307 5.58887 4.93132 5.58824 4.93194C5.58803 4.93215 5.5874 4.93278 5.58697 4.9332C5.58612 4.93406 5.58525 4.93492 5.58437 4.93581C5.5826 4.9376 5.58077 4.93946 5.57888 4.9414C5.57511 4.94528 5.57112 4.94949 5.56692 4.95402C5.5585 4.96307 5.54927 4.97343 5.53939 4.98514C5.51962 5.00853 5.49723 5.03734 5.47369 5.0718C5.42651 5.1409 5.37509 5.23225 5.33146 5.34714C5.24243 5.58155 5.1947 5.89057 5.25454 6.27322C5.37156 7.02156 5.89103 8.01006 7.22173 9.32272L8.14368 8.40278C6.89841 7.17434 6.60176 6.42677 6.54666 6.07434C6.52042 5.90662 6.54762 5.82407 6.55512 5.80453C6.55965 5.79244 6.56183 5.7912 6.55625 5.79946C6.55346 5.8035 6.54884 5.80982 6.54161 5.81834C6.53803 5.8226 6.53376 5.82743 6.52879 5.83281C6.52627 5.8355 6.52365 5.83833 6.52069 5.84129C6.51929 5.84278 6.51781 5.84429 6.51624 5.84585C6.51546 5.84663 6.51467 5.84742 6.51389 5.84821C6.51354 5.84861 6.51293 5.84922 6.51267 5.84941C6.51206 5.85002 6.51145 5.85062 6.05047 5.39066ZM7.22173 9.32272C8.55287 10.6358 9.55388 11.1469 10.3094 11.2619C10.6955 11.3206 11.0068 11.2737 11.2429 11.1865C11.3587 11.1437 11.4509 11.0932 11.5207 11.0469C11.5555 11.0237 11.5847 11.0017 11.6083 10.9822C11.6201 10.9725 11.6306 10.9634 11.6398 10.9551C11.6444 10.951 11.6487 10.9471 11.6526 10.9434C11.6546 10.9415 11.6564 10.9396 11.6582 10.9379C11.6591 10.937 11.66 10.9362 11.6609 10.9353C11.6613 10.9349 11.662 10.9343 11.6622 10.9341C11.6628 10.9335 11.6634 10.9329 11.2024 10.4729C10.7414 10.013 10.742 10.0124 10.7427 10.0117C10.7428 10.0116 10.7434 10.011 10.7439 10.0105C10.7447 10.0098 10.7454 10.009 10.7462 10.0082C10.7479 10.0067 10.7494 10.0053 10.7509 10.0038C10.7539 10.0009 10.7568 9.99834 10.7595 9.99583C10.7649 9.99099 10.7698 9.98675 10.7741 9.98329C10.7827 9.9762 10.789 9.9717 10.793 9.96902C10.8011 9.96366 10.7994 9.96608 10.7865 9.97084C10.7652 9.97871 10.6796 10.0058 10.5077 9.97958C10.1474 9.92483 9.3886 9.63078 8.14368 8.40278L7.22173 9.32272ZM5.86126 1.00332C4.9727 -0.174247 3.22542 -0.360579 2.16423 0.686251L3.08621 1.60617C3.54969 1.14895 4.37285 1.19549 4.8145 1.78077L5.86126 1.00332ZM1.30911 3.85165C1.29196 3.55232 1.43034 3.23964 1.71794 2.95593L0.79596 2.03601C0.327561 2.49807 -0.0406761 3.15216 0.0036166 3.92526L1.30911 3.85165ZM14.1415 14.2822C13.902 14.5186 13.6452 14.6517 13.387 14.6755L13.5083 15.9672C14.1487 15.9079 14.6734 15.587 15.0635 15.2021L14.1415 14.2822ZM6.76146 5.60398C7.61968 4.75736 7.68349 3.41823 6.96047 2.46007L5.9137 3.23753C6.26544 3.70366 6.21314 4.31549 5.83951 4.68407L6.76146 5.60398ZM15.0593 11.2754C15.7722 11.6599 15.8833 12.564 15.3799 13.0606L16.3019 13.9805C17.4703 12.828 17.11 10.9048 15.6838 10.1357L15.0593 11.2754ZM12.0605 10.5412C12.3952 10.211 12.934 10.1292 13.3939 10.3771L14.0184 9.23745C13.0738 8.72797 11.9015 8.86868 11.1384 9.62127L12.0605 10.5412Z" fill="#807DF0"/>
</svg>
