<svg width="30" height="32" viewBox="0 0 30 32" fill="none" xmlns="http://www.w3.org/2000/svg">
<rect x="6.85742" y="18" width="18" height="9.42857" fill="#807DF0"/>
<path fill-rule="evenodd" clip-rule="evenodd" d="M15 2.2926C10.6508 2.2926 7.125 5.88512 7.125 10.3167V13.379C7.69951 13.3735 8.32273 13.3735 9 13.3735H21C25.2426 13.3735 27.3639 13.3735 28.6819 14.7165C30 16.0595 30 18.221 30 22.5439C30 26.8668 30 29.0283 28.6819 30.3713C27.3639 31.7143 25.2426 31.7143 21 31.7143H9C4.75736 31.7143 2.63604 31.7143 1.31802 30.3713C0 29.0283 0 26.8668 0 22.5439C0 18.221 0 16.0595 1.31802 14.7165C2.11396 13.9054 3.20287 13.5843 4.875 13.4569V10.3167C4.875 4.61894 9.40812 0 15 0C19.7195 0 23.682 3.28896 24.806 7.73838C24.9608 8.35148 24.5987 8.97641 23.9969 9.13422C23.3952 9.29201 22.7819 8.92292 22.6269 8.30982C21.7527 4.84872 18.668 2.2926 15 2.2926ZM16.125 19.4871C16.125 18.854 15.6213 18.3408 15 18.3408C14.3787 18.3408 13.875 18.854 13.875 19.4871V25.6007C13.875 26.2338 14.3787 26.747 15 26.747C15.6213 26.747 16.125 26.2338 16.125 25.6007V19.4871Z" fill="white"/>
</svg>
