<svg width="26" height="20" viewBox="0 0 26 20" fill="none" xmlns="http://www.w3.org/2000/svg">
<path d="M14.0704 0.576001C13.9512 0.398358 13.7916 0.253111 13.6054 0.152769C13.4192 0.0524268 13.2121 -1.85766e-06 13.0018 -1.87604e-06C12.7914 -1.89443e-06 12.5843 0.0524267 12.3981 0.152769C12.2119 0.253111 12.0524 0.398358 11.9331 0.576001L0.232162 17.9081C0.096724 18.1081 0.0173011 18.3422 0.00252028 18.5852C-0.0122606 18.8281 0.0381667 19.0706 0.148324 19.2862C0.258482 19.5018 0.424156 19.6824 0.627347 19.8082C0.830538 19.934 1.06347 20.0004 1.30085 20L24.7027 20C24.9395 19.999 25.1716 19.9318 25.3739 19.8057C25.5763 19.6795 25.7413 19.4992 25.8512 19.2841C25.9611 19.0689 26.0118 18.8272 25.9977 18.5847C25.9836 18.3423 25.9054 18.1084 25.7714 17.9081L14.0704 0.576001Z" fill="#D9D9D9"/>
</svg>
