<svg width="35" height="35" viewBox="0 0 35 35" fill="none" xmlns="http://www.w3.org/2000/svg">
<circle cx="17.4993" cy="17.5007" r="17.5007" fill="#D9D9D9"/>
<path d="M23.1041 7.77834C22.5631 7.77663 22.0272 7.8824 21.5275 8.08951C21.0278 8.29663 20.5742 8.60096 20.1931 8.98484L8.90006 20.2759C8.7552 20.421 8.65991 20.6082 8.62782 20.8107L7.78874 26.0975C7.76455 26.2491 7.77665 26.4044 7.82404 26.5505C7.87143 26.6966 7.95277 26.8294 8.06138 26.938C8.17 27.0466 8.30281 27.128 8.44893 27.1753C8.59504 27.2227 8.75031 27.2348 8.902 27.2106L14.1941 26.3716C14.3966 26.3395 14.5838 26.2443 14.7289 26.0994L26.016 14.8073C26.5919 14.231 26.9838 13.4969 27.1423 12.6979C27.3009 11.8988 27.2188 11.0707 26.9066 10.3182C26.5943 9.56581 26.0659 8.92287 25.3882 8.47076C24.7105 8.01866 23.9139 7.77769 23.0992 7.77834H23.1041ZM13.5718 24.5001L9.91609 25.0835L10.4995 21.4309L18.6569 13.2732L21.7312 16.3473L13.5718 24.5001ZM24.6412 13.4326L23.105 14.9726L20.0278 11.8956L21.5649 10.3595C21.9789 9.96437 22.5293 9.74389 23.1016 9.74389C23.674 9.74389 24.2243 9.96437 24.6383 10.3595C24.8402 10.5612 25.0004 10.8008 25.1097 11.0644C25.219 11.3281 25.2753 11.6107 25.2753 11.8961C25.2753 12.1815 25.219 12.4641 25.1097 12.7278C25.0004 12.9914 24.8402 13.2309 24.6383 13.4326H24.6412Z" fill="#807DF0"/>
</svg>
