<svg width="30" height="30" viewBox="0 0 30 30" fill="none" xmlns="http://www.w3.org/2000/svg">
<rect width="30" height="30" rx="15" fill="#D9D9D9"/>
<path d="M15.0006 11.6555C17.2724 11.6555 19.114 13.5235 19.114 15.8278C19.114 18.132 17.2724 20 15.0006 20C12.7289 20 10.8872 18.132 10.8872 15.8278C10.8872 13.5235 12.7289 11.6555 15.0006 11.6555ZM15.0006 8C19.7449 8 23.8404 11.2856 24.9767 15.8901C25.0802 16.3092 24.8291 16.734 24.4158 16.8389C24.0026 16.9439 23.5838 16.6891 23.4804 16.27C22.5149 12.3579 19.0332 9.56459 15.0006 9.56459C10.9664 9.56459 7.48353 12.3603 6.51972 16.2747C6.41651 16.6939 5.99783 16.9489 5.58457 16.8442C5.17131 16.7395 4.91996 16.3148 5.02316 15.8956C6.15752 11.2885 10.2543 8 15.0006 8Z" fill="#807DF0"/>
</svg>
