<svg width="35" height="35" viewBox="0 0 35 35" fill="none" xmlns="http://www.w3.org/2000/svg">
<circle cx="17.5" cy="17.5" r="17.5" fill="#D9D9D9"/>
<path d="M12.061 12.0608C12.5867 11.5351 13.4391 11.5351 13.9647 12.0608L17.5001 15.5962L21.0355 12.0608C21.5612 11.5351 22.4134 11.5351 22.9391 12.0608C23.4648 12.5865 23.4648 13.4389 22.9391 13.9647L19.4039 17.4999L22.9391 21.0351C23.4648 21.5608 23.4648 22.4132 22.9391 22.9389C22.4134 23.4646 21.561 23.4646 21.0353 22.9389L17.5001 19.4037L13.9649 22.9389C13.4391 23.4646 12.5868 23.4646 12.0611 22.9389C11.5354 22.4132 11.5354 21.561 12.0611 21.0352L15.5965 17.4999L12.061 13.9645C11.5353 13.4388 11.5353 12.5865 12.061 12.0608Z" fill="#807DF0"/>
</svg>
