<svg width="26" height="20" viewBox="0 0 26 20" fill="none" xmlns="http://www.w3.org/2000/svg">
<path d="M11.9296 19.424C12.0488 19.6016 12.2084 19.7469 12.3946 19.8472C12.5808 19.9476 12.7879 20 12.9982 20C13.2086 20 13.4157 19.9476 13.6019 19.8472C13.7881 19.7469 13.9476 19.6016 14.0669 19.424L25.7678 2.09186C25.9033 1.89195 25.9827 1.6578 25.9975 1.41484C26.0123 1.17189 25.9618 0.929434 25.8517 0.71381C25.7415 0.498185 25.5758 0.317643 25.3727 0.191798C25.1695 0.0659528 24.9365 -0.000381766 24.6992 1.65276e-06H1.29732C1.0605 0.0010048 0.828424 0.0681925 0.626054 0.194339C0.423683 0.320485 0.258674 0.500818 0.148771 0.715943C0.0388681 0.931069 -0.01177 1.17285 0.00230222 1.41528C0.0163745 1.65771 0.0946246 1.89162 0.228638 2.09186L11.9296 19.424Z" fill="#D9D9D9"/>
</svg>
