<svg width="17" height="18" viewBox="0 0 17 18" fill="none" xmlns="http://www.w3.org/2000/svg">
<path d="M14.125 3.69231V12.8462C14.125 14.354 14.125 15.1079 13.8184 15.6838C13.5488 16.1904 13.1186 16.6023 12.5894 16.8604C11.9877 17.1538 11.2002 17.1538 9.625 17.1538H7.375C5.79985 17.1538 5.01228 17.1538 4.41065 16.8604C3.88144 16.6023 3.45119 16.1904 3.18154 15.6838C2.875 15.1079 2.875 14.354 2.875 12.8462V3.69231M1 3.69231H16M12.25 3.69231L11.9963 2.96365C11.7504 2.25753 11.6274 1.90447 11.3994 1.64344C11.198 1.41294 10.9395 1.23452 10.6473 1.12455C10.3165 1 9.92781 1 9.15025 1H7.84975C7.07219 1 6.6835 1 6.35267 1.12455C6.06055 1.23452 5.80195 1.41294 5.60058 1.64344C5.37255 1.90447 5.24961 2.25753 5.00373 2.96365L4.75 3.69231" stroke="#807DF0" stroke-width="1.5" stroke-linecap="round" stroke-linejoin="round"/>
</svg>
