<svg width="136" height="48" viewBox="0 0 136 48" fill="none" xmlns="http://www.w3.org/2000/svg">
<g clip-path="url(#clip0_322_45)">
<path d="M124.212 13.6994L120.461 9.38904L128.041 0.443359H135.587L124.212 13.6994Z" fill="#807DF0"/>
<path d="M113.447 16.9766L117.199 21.2869L109.539 30.3105H101.992L113.447 16.9766Z" fill="#807DF0"/>
<path d="M88.2823 30.3054H82.6966V12.522L72.8695 29.4105C72.6283 29.8413 72.2871 30.1673 71.8461 30.3895C71.42 30.6117 70.9587 30.7227 70.4603 30.7227C69.9619 30.7227 69.523 30.6117 69.0968 30.3895C68.6845 30.1673 68.3572 29.8413 68.1159 29.4105L58.2463 12.522V30.3054H52.7031V2.75513C52.7031 2.13017 52.888 1.57476 53.2579 1.08891C53.6415 0.60306 54.1389 0.277083 54.7499 0.109941C55.0486 0.0403858 55.3472 0.0196229 55.6458 0.0476528C55.9434 0.0611486 56.2282 0.124475 56.4981 0.235557C56.7819 0.333142 57.038 0.478482 57.2654 0.672615C57.4928 0.853252 57.6852 1.07542 57.8414 1.3391L70.4603 22.7674L83.0802 1.3391C83.4076 0.811727 83.855 0.436957 84.4235 0.214794C85.0059 -0.00736889 85.6106 -0.0416276 86.2355 0.110979C86.8327 0.277083 87.3227 0.604098 87.7063 1.08995C88.09 1.5758 88.2823 2.13121 88.2823 2.75617V30.3054Z" fill="white"/>
<path d="M98.3245 30.3045H92.7812V0.443359H98.3245V30.3045Z" fill="white"/>
<path d="M118.766 11.1051L122.517 15.4155L135.586 30.3045H128.06L118.766 19.7258L115.014 15.4155L101.926 0.443359H109.429L118.766 11.1051Z" fill="white"/>
<path d="M22.2523 18.9472L27.1437 24.6582L44.181 44.3848H34.3696L22.2523 30.3692L17.3608 24.6582L0.296875 4.82129H10.0798L22.2523 18.9472Z" fill="white"/>
<path d="M17.2431 33.4342L12.3516 27.7232L22.2343 15.8711H32.0724L17.2431 33.4342Z" fill="#807DF0"/>
<path d="M27.2861 15.8711L32.1776 21.5822L22.1898 33.5377H12.3516L27.2861 15.8711Z" fill="#807DF0"/>
<path d="M64.2671 47.171H55.9425C55.7295 47.171 55.4987 47.1473 55.2502 47.1C55.0076 47.0467 54.7651 46.9668 54.5225 46.8603C54.2858 46.7538 54.058 46.6178 53.8391 46.4521C53.6202 46.2805 53.425 46.0764 53.2534 45.8397C53.0877 45.5971 52.9546 45.3191 52.854 45.0055C52.7534 44.686 52.7031 44.328 52.7031 43.9316V37.6837C52.7031 37.4707 52.7268 37.2429 52.7741 37.0003C52.8274 36.7518 52.9072 36.5092 53.0137 36.2726C53.1202 36.03 53.2593 35.7992 53.4309 35.5803C53.6024 35.3614 53.8066 35.1691 54.0432 35.0035C54.2858 34.8319 54.5639 34.6958 54.8775 34.5952C55.1911 34.4946 55.5461 34.4443 55.9425 34.4443H64.2671V36.7518H55.9425C55.6407 36.7518 55.41 36.8317 55.2502 36.9914C55.0905 37.1512 55.0106 37.3878 55.0106 37.7014V43.9316C55.0106 44.2274 55.0905 44.4582 55.2502 44.6239C55.4159 44.7836 55.6466 44.8635 55.9425 44.8635H64.2671V47.171Z" fill="white"/>
<path d="M76.5056 43.9316C76.5056 44.328 76.4553 44.686 76.3548 45.0055C76.2542 45.3191 76.1211 45.5971 75.9554 45.8397C75.7897 46.0764 75.5974 46.2805 75.3785 46.4521C75.1596 46.6178 74.9289 46.7538 74.6863 46.8603C74.4496 46.9668 74.207 47.0467 73.9585 47.1C73.716 47.1473 73.4852 47.171 73.2663 47.171H69.104C68.7845 47.171 68.4354 47.1148 68.0567 47.0023C67.6781 46.8899 67.326 46.7065 67.0006 46.4521C66.6811 46.1918 66.4119 45.8575 66.193 45.4492C65.98 45.0351 65.8735 44.5292 65.8735 43.9316V40.8076C65.8735 40.216 65.98 39.716 66.193 39.3078C66.4119 38.8936 66.6811 38.5593 67.0006 38.3049C67.326 38.0446 67.6781 37.8582 68.0567 37.7458C68.4354 37.6334 68.7845 37.5772 69.104 37.5772H73.2663C73.858 37.5772 74.3609 37.6837 74.775 37.8967C75.1892 38.1097 75.5235 38.3789 75.7779 38.7043C76.0323 39.0238 76.2157 39.3729 76.3281 39.7515C76.4465 40.1302 76.5056 40.4822 76.5056 40.8076V43.9316ZM74.1982 40.8254C74.1982 40.5059 74.1183 40.2692 73.9585 40.1154C73.7988 39.9616 73.568 39.8847 73.2663 39.8847H69.1217C68.814 39.8847 68.5803 39.9645 68.4206 40.1243C68.2608 40.2781 68.181 40.5059 68.181 40.8076V43.9316C68.181 44.2334 68.2608 44.4641 68.4206 44.6239C68.5803 44.7836 68.814 44.8635 69.1217 44.8635H73.2663C73.5799 44.8635 73.8136 44.7836 73.9674 44.6239C74.1212 44.4641 74.1982 44.2334 74.1982 43.9316V40.8254Z" fill="white"/>
<path d="M89.1081 47.171H86.8006V41.846C86.8006 41.5443 86.7474 41.2751 86.6409 41.0384C86.5403 40.7958 86.4013 40.5887 86.2238 40.4172C86.0463 40.2456 85.8362 40.1154 85.5937 40.0267C85.357 39.932 85.0996 39.8847 84.8215 39.8847H80.7834V47.171H78.476V38.722C78.476 38.5623 78.5056 38.4144 78.5647 38.2783C78.6239 38.1363 78.7067 38.015 78.8132 37.9144C78.9197 37.8079 79.044 37.7251 79.186 37.6659C79.328 37.6068 79.4787 37.5772 79.6385 37.5772H84.8393C85.1292 37.5772 85.4339 37.6097 85.7534 37.6748C86.0788 37.7399 86.3983 37.8464 86.7119 37.9943C87.0314 38.1363 87.3331 38.3197 87.6171 38.5445C87.907 38.7635 88.1615 39.0327 88.3804 39.3522C88.6052 39.6657 88.7827 40.0296 88.9129 40.4438C89.043 40.8579 89.1081 41.3254 89.1081 41.846V47.171Z" fill="white"/>
<path d="M101.764 47.171H99.4562V41.846C99.4562 41.5443 99.4029 41.2751 99.2964 41.0384C99.1958 40.7958 99.0568 40.5887 98.8793 40.4172C98.7018 40.2456 98.4918 40.1154 98.2492 40.0267C98.0125 39.932 97.7551 39.8847 97.4771 39.8847H93.439V47.171H91.1315V38.722C91.1315 38.5623 91.1611 38.4144 91.2202 38.2783C91.2794 38.1363 91.3622 38.015 91.4687 37.9144C91.5752 37.8079 91.6995 37.7251 91.8415 37.6659C91.9835 37.6068 92.1344 37.5772 92.2941 37.5772H97.4948C97.7847 37.5772 98.0894 37.6097 98.4089 37.6748C98.7343 37.7399 99.0538 37.8464 99.3674 37.9943C99.6869 38.1363 99.9887 38.3197 100.273 38.5445C100.563 38.7635 100.817 39.0327 101.036 39.3522C101.261 39.6657 101.438 40.0296 101.568 40.4438C101.699 40.8579 101.764 41.3254 101.764 41.846V47.171Z" fill="white"/>
<path d="M114.109 40.7544C114.109 41.0739 114.052 41.42 113.94 41.7928C113.828 42.1596 113.644 42.5028 113.39 42.8223C113.141 43.1358 112.813 43.3991 112.405 43.6121C112.002 43.8251 111.511 43.9316 110.931 43.9316H106.769V41.7395H110.931C111.245 41.7395 111.488 41.6448 111.659 41.4555C111.831 41.2603 111.917 41.0206 111.917 40.7366C111.917 40.4349 111.819 40.1982 111.624 40.0267C111.434 39.8551 111.204 39.7693 110.931 39.7693H106.769C106.456 39.7693 106.213 39.8669 106.041 40.0622C105.87 40.2515 105.784 40.4882 105.784 40.7721V43.9937C105.784 44.3014 105.879 44.541 106.068 44.7126C106.263 44.8842 106.503 44.97 106.787 44.97H110.931V47.171H106.769C106.45 47.171 106.103 47.1148 105.731 47.0023C105.364 46.8899 105.021 46.7095 104.701 46.461C104.388 46.2066 104.124 45.8782 103.911 45.4759C103.698 45.0676 103.592 44.5736 103.592 43.9937V40.7544C103.592 40.4349 103.648 40.0917 103.76 39.7249C103.873 39.3522 104.053 39.009 104.302 38.6954C104.556 38.3759 104.885 38.1097 105.287 37.8967C105.695 37.6837 106.189 37.5772 106.769 37.5772H110.931C111.251 37.5772 111.594 37.6334 111.961 37.7458C112.334 37.8582 112.677 38.0416 112.99 38.296C113.31 38.5445 113.576 38.8729 113.789 39.2812C114.002 39.6835 114.109 40.1746 114.109 40.7544Z" fill="white"/>
<path d="M124.954 47.171H118.697C118.377 47.171 118.028 47.1148 117.65 47.0023C117.271 46.8899 116.919 46.7065 116.594 46.4521C116.274 46.1918 116.005 45.8575 115.786 45.4492C115.573 45.0351 115.467 44.5292 115.467 43.9316V40.8076C115.467 40.5887 115.49 40.358 115.538 40.1154C115.591 39.8728 115.671 39.6332 115.777 39.3965C115.884 39.154 116.02 38.9232 116.185 38.7043C116.357 38.4854 116.561 38.2931 116.798 38.1274C117.04 37.9618 117.318 37.8286 117.632 37.7281C117.946 37.6275 118.301 37.5772 118.697 37.5772H124.954V39.8847H118.697C118.395 39.8847 118.164 39.9616 118.005 40.1154C117.851 40.2692 117.774 40.5059 117.774 40.8254V43.9316C117.774 44.2334 117.854 44.4641 118.014 44.6239C118.173 44.7836 118.407 44.8635 118.715 44.8635H124.954V47.171Z" fill="white"/>
<path d="M135.586 39.8847H131.557V47.171H129.223V39.8847H126.223V37.5772H129.223V34.4443H131.557V37.5772H135.586V39.8847Z" fill="white"/>
</g>
<defs>
<clipPath id="clip0_322_45">
<rect width="136" height="48" fill="white"/>
</clipPath>
</defs>
</svg>
