<svg width="30" height="30" viewBox="0 0 30 30" fill="none" xmlns="http://www.w3.org/2000/svg">
<circle cx="15" cy="15" r="15" fill="#D9D9D9"/>
<circle cx="15" cy="15" r="15" fill="url(#paint0_linear_271_14)"/>
<path d="M22.6 10.6H20.2M16 8.2H8.2C7.63432 8.2 7.35147 8.2 7.17574 8.37574C7 8.55147 7 8.83432 7 9.4V11.7578C7 12.0722 7 12.2293 7.07099 12.362C7.142 12.4947 7.27278 12.5818 7.53436 12.7562L11.1626 15.175C12.2089 15.8726 12.732 16.2214 13.016 16.752C13.3 17.2826 13.3 17.9114 13.3 19.1688V25L17.5 22.9V19.1688C17.5 17.9114 17.5 17.2826 17.784 16.752C17.9446 16.4518 18.1818 16.2098 18.5471 15.9298M25 10.6C25 12.5882 23.3883 14.2 21.4 14.2C19.4117 14.2 17.8 12.5882 17.8 10.6C17.8 8.61178 19.4117 7 21.4 7C23.3883 7 25 8.61178 25 10.6Z" stroke="white" stroke-linecap="round" stroke-linejoin="round"/>
<defs>
<linearGradient id="paint0_linear_271_14" x1="30" y1="11.7722" x2="0.570535" y2="11.9754" gradientUnits="userSpaceOnUse">
<stop stop-color="#C5C3FF"/>
<stop offset="0.492931" stop-color="#A3A0F8"/>
<stop offset="1" stop-color="#4441C8"/>
</linearGradient>
</defs>
</svg>
