<svg width="15" height="15" viewBox="0 0 15 15" fill="none" xmlns="http://www.w3.org/2000/svg">
<path d="M11.824 1.58461e-05C11.4067 -0.00130766 10.9933 0.080288 10.6078 0.240064C10.2223 0.39984 9.8724 0.634611 9.5784 0.930743L0.866657 9.64102C0.75491 9.75294 0.681404 9.89732 0.656645 10.0535L0.00935867 14.1319C-0.00930214 14.2489 2.89974e-05 14.3687 0.0365875 14.4814C0.073146 14.5941 0.135891 14.6966 0.219682 14.7803C0.303473 14.8641 0.405925 14.9269 0.518643 14.9634C0.631361 15 0.751137 15.0093 0.868157 14.9906L4.95064 14.3434C5.10685 14.3187 5.25123 14.2452 5.36316 14.1334L14.0704 5.42238C14.5146 4.97782 14.817 4.41151 14.9393 3.79508C15.0616 3.17866 14.9983 2.53982 14.7574 1.95937C14.5165 1.37892 14.1089 0.88294 13.5861 0.534171C13.0633 0.185402 12.4488 -0.000487566 11.8203 1.58461e-05H11.824ZM4.47061 12.8997L1.65045 13.3497L2.10048 10.532L8.39333 4.23891L10.765 6.61035L4.47061 12.8997ZM13.0098 4.36191L11.8248 5.54988L9.45089 3.17619L10.6367 1.99122C10.9561 1.68638 11.3806 1.5163 11.8222 1.5163C12.2637 1.5163 12.6882 1.68638 13.0076 1.99122C13.1634 2.14682 13.287 2.3316 13.3713 2.53499C13.4556 2.73838 13.499 2.95639 13.499 3.17656C13.499 3.39673 13.4556 3.61475 13.3713 3.81813C13.287 4.02152 13.1634 4.2063 13.0076 4.36191H13.0098Z" fill="#807DF0"/>
</svg>
