<svg width="28" height="28" viewBox="0 0 28 28" fill="none" xmlns="http://www.w3.org/2000/svg">
<circle cx="14" cy="14" r="14" fill="#D9D9D9"/>
<circle cx="14" cy="14" r="14" fill="url(#paint0_linear_291_2)"/>
<path d="M7.15199 12.6566L6.576 13.2336L6 12.6566L6.576 12.0797L7.15199 12.6566ZM21 19.1841C21 19.6347 20.6353 20 20.1854 20C19.7355 20 19.3708 19.6347 19.3708 19.1841H21ZM10.6489 17.3132L6.576 13.2336L7.72799 12.0797L11.8009 16.1593L10.6489 17.3132ZM6.576 12.0797L10.6489 8L11.8009 9.15391L7.72799 13.2336L6.576 12.0797ZM7.15199 11.8407H15.2979V13.4725H7.15199V11.8407ZM21 17.5522V19.1841H19.3708V17.5522H21ZM15.2979 11.8407C18.4471 11.8407 21 14.3978 21 17.5522H19.3708C19.3708 15.2991 17.5473 13.4725 15.2979 13.4725V11.8407Z" fill="#F9F8FE"/>
<defs>
<linearGradient id="paint0_linear_291_2" x1="28" y1="10.9874" x2="0.532499" y2="11.177" gradientUnits="userSpaceOnUse">
<stop stop-color="#C5C3FF"/>
<stop offset="0.492931" stop-color="#A3A0F8"/>
<stop offset="1" stop-color="#4441C8"/>
</linearGradient>
</defs>
</svg>
